<svg width="379" height="344" viewBox="0 0 379 344" fill="none" xmlns="http://www.w3.org/2000/svg">
<g clip-path="url(#clip0_23_516)">
<path d="M126.953 147.233L146.302 171.453L160.847 139.994L126.953 147.233ZM234.633 282.018L279.474 280.647C292.294 280.252 303.607 272.779 308.994 261.14C314.374 249.492 312.742 236.039 304.733 226.015L262.731 173.44C251.152 158.947 229.935 156.575 215.442 168.154C208.695 173.544 204.635 181.022 203.336 188.936L201.417 186.536C198.841 183.311 195.524 181.081 191.92 179.696L210.989 138.465C216.221 127.136 214.442 113.786 206.342 103.648C198.243 93.5096 185.615 88.8263 173.41 91.428L75.3088 112.381C66.52 114.264 58.99 119.447 54.0929 126.991C49.1957 134.535 47.552 143.528 49.4186 152.315C50.5029 157.392 52.803 162.23 56.0442 166.287C64.0456 176.302 76.8062 180.865 89.3527 178.206L93.5553 177.303L109.593 197.378L107.794 201.27C102.414 212.918 104.046 226.371 112.054 236.396C115.303 240.461 119.506 243.764 124.218 245.943C126.988 247.218 129.874 247.955 132.795 248.45C132.3 256.598 134.736 264.786 140.056 271.445L182.059 324.02C193.637 338.514 214.854 340.885 229.347 329.307C243.84 317.728 246.212 296.511 234.633 282.018ZM133.629 225.576C132.005 224.82 130.636 223.718 129.586 222.403C127.01 219.179 126.318 214.665 128.16 210.681L135.778 194.216L102.428 152.472L84.6802 156.257C80.3882 157.174 76.1383 155.502 73.5692 152.286C72.5191 150.972 71.746 149.393 71.3758 147.636C70.0819 141.578 73.9481 135.618 80.0059 134.324L178.107 113.371C182.252 112.486 186.283 114.477 188.817 117.649C191.351 120.821 192.412 125.185 190.631 129.047L148.533 220.101C145.925 225.73 139.26 228.169 133.629 225.576ZM175.13 207.537C171.266 202.7 172.055 195.638 176.892 191.774C181.729 187.91 188.791 188.699 192.655 193.536L199.655 202.298C203.52 207.135 202.73 214.197 197.893 218.061C193.056 221.926 185.995 221.136 182.13 216.299L175.13 207.537ZM199.583 310.02L157.581 257.445C154.928 254.124 154.381 249.594 156.161 245.731C157.942 241.868 161.757 239.366 166.001 239.234L255.683 236.491L227.681 201.441C223.817 196.605 224.606 189.543 229.443 185.679C234.28 181.814 241.342 182.604 245.206 187.441L287.208 240.016C289.862 243.337 290.409 247.866 288.628 251.729C286.848 255.592 283.033 258.094 278.789 258.226L189.107 260.969L217.108 296.019C220.973 300.856 220.183 307.917 215.346 311.782C210.51 315.646 203.448 314.857 199.583 310.02Z" fill="white"/>
</g>
<defs>
<clipPath id="clip0_23_516">
<rect width="269.172" height="269.172" fill="white" transform="translate(210.3) rotate(51.3784)"/>
</clipPath>
</defs>
</svg>
