<svg width="370" height="200" viewBox="0 0 370 200" fill="none" xmlns="http://www.w3.org/2000/svg">
<g clip-path="url(#clip0_23_445)">
<path d="M4.38078 97.0053L4.78018 173.731L0.973565 178.873L0.995533 183.093L13.4166 186.945L13.3946 182.727L69.3553 183.642C69.3553 183.642 75.2009 183.208 74.5861 181.202C73.9712 179.197 67.1696 151.111 102.445 148.518C102.445 148.518 132.7 150.772 130.041 182.323C130.041 182.323 132.064 183.513 137.304 182.784L304.052 181.014C304.052 181.014 309.603 182.088 309.486 178.773C309.369 175.457 305.889 146.352 334.015 146.405C334.015 146.405 351.052 145.314 356.668 159.246L356.697 164.972C356.697 164.972 357.626 169.282 362.352 166.749C362.352 166.749 360.346 168.767 360.691 177.503L364.781 177.682C364.781 177.682 366.089 177.475 366.179 175.163L366.067 153.524C366.067 153.524 368.844 154.467 368.831 151.8L368.802 146.379C368.802 146.379 368.588 144.372 365.869 144.889C365.869 144.889 367.543 137.6 361.432 135.771C361.432 135.771 359.952 131.264 352.635 130.095L353.979 126.872L352.61 125.299L354.334 122.128L353.416 119.873L353.551 117.531L353.739 95.1892C353.739 95.1892 361.061 92.6398 357.109 89.1196L343.201 90.1686L53.7462 90.6963L5.05331 90.9498C5.05331 90.9498 1.32552 91.5943 4.38206 97.0053" fill="#C95559"/>
<path d="M82.5099 115.475C82.5181 116.849 82.7974 118.207 83.3316 119.473C83.8659 120.739 84.6447 121.887 85.6236 122.852C86.6025 123.817 87.7623 124.58 89.0367 125.098C90.3111 125.615 91.6751 125.877 93.0509 125.868L115.838 125.75C118.612 125.735 121.266 124.621 123.218 122.653C125.169 120.684 126.257 118.022 126.243 115.253C126.228 112.484 125.112 109.833 123.141 107.885C121.169 105.937 118.503 104.851 115.729 104.865L92.9421 104.984C91.5671 104.989 90.2065 105.264 88.938 105.794C87.6695 106.324 86.5179 107.098 85.5492 108.072C84.5804 109.046 83.8134 110.202 83.2919 111.472C82.7704 112.742 82.5047 114.103 82.5099 115.475Z" fill="white"/>
<path d="M133.725 115.209C133.733 116.582 134.012 117.94 134.546 119.206C135.08 120.472 135.859 121.62 136.838 122.585C137.816 123.55 138.976 124.313 140.25 124.831C141.524 125.348 142.888 125.61 144.264 125.602L167.049 125.483C169.822 125.468 172.477 124.354 174.428 122.386C176.38 120.418 177.468 117.756 177.453 114.986C177.439 112.217 176.323 109.567 174.351 107.619C172.38 105.671 169.714 104.584 166.94 104.599L144.155 104.717C142.78 104.722 141.42 104.998 140.151 105.528C138.883 106.058 137.732 106.832 136.763 107.806C135.795 108.781 135.028 109.936 134.507 111.206C133.985 112.476 133.72 113.836 133.725 115.209Z" fill="white"/>
<path d="M184.94 114.942C184.949 116.316 185.228 117.674 185.762 118.939C186.296 120.205 187.075 121.353 188.053 122.318C189.032 123.283 190.191 124.046 191.465 124.564C192.739 125.082 194.103 125.344 195.479 125.335L218.264 125.216C221.038 125.202 223.692 124.088 225.644 122.119C227.595 120.151 228.683 117.489 228.669 114.72C228.654 111.95 227.538 109.3 225.567 107.352C223.595 105.404 220.929 104.318 218.155 104.332L195.37 104.451C193.995 104.456 192.635 104.731 191.367 105.261C190.098 105.791 188.947 106.566 187.979 107.54C187.01 108.514 186.243 109.669 185.722 110.939C185.201 112.209 184.935 113.57 184.94 114.942Z" fill="white"/>
<path d="M236.158 114.676C236.166 116.049 236.445 117.407 236.979 118.672C237.513 119.938 238.291 121.086 239.27 122.051C240.248 123.016 241.407 123.779 242.681 124.297C243.955 124.815 245.319 125.077 246.694 125.068L269.482 124.95C272.255 124.935 274.91 123.821 276.861 121.853C278.813 119.884 279.901 117.223 279.886 114.453C279.872 111.684 278.756 109.033 276.784 107.085C274.813 105.137 272.147 104.051 269.373 104.065L246.585 104.184C243.809 104.195 241.151 105.306 239.195 107.274C237.24 109.242 236.147 111.904 236.158 114.676Z" fill="white"/>
<path d="M349.541 126.945C349.541 126.945 315.064 127.525 312.631 124.725L312.529 105.241C312.529 105.241 311.705 101.831 318.147 99.9888L347.36 95.2199C347.36 95.2199 348.864 113.292 349.541 126.945Z" fill="white"/>
<path d="M361.919 83.5931L5.3263 85.4494L5.07377 36.9382C5.07377 36.9382 1.86837 1.70545 36.9534 1.82196C72.0384 1.93848 330.417 0.294302 330.417 0.294302C330.417 0.294302 350.283 -2.52002 355.234 20.051L358.979 41.826L357.183 45.3486L361.918 83.5905" fill="#C95559"/>
<path d="M263.089 39.8184L307.85 39.5854L307.75 20.3008L262.989 20.5338L263.089 39.8184Z" fill="white"/>
<path d="M211.372 40.0877L256.134 39.8546L256.033 20.5701L211.271 20.8031L211.372 40.0877Z" fill="white"/>
<path d="M184.247 40.2288L205.018 40.1206L204.917 20.8361L184.146 20.9442L184.247 40.2288Z" fill="white"/>
<path d="M133.336 40.4939L175.981 40.2719L175.881 20.9874L133.236 21.2094L133.336 40.4939Z" fill="white"/>
<path d="M82.6775 40.7576L125.323 40.5356L125.222 21.251L82.5771 21.473L82.6775 40.7576Z" fill="white"/>
<path d="M73.6533 40.8045L32.5203 41.0186C32.5203 41.0186 33.6359 23.7383 41.7007 23.4935L73.5624 23.3276L73.6533 40.8045Z" fill="white"/>
<path d="M314.706 39.5497L348.986 39.3712C348.986 39.3712 347.888 22.1024 341.164 21.9345L314.615 22.0728L314.706 39.5497Z" fill="white"/>
<path d="M11.4442 98.5759L11.4414 98.0376L46.1582 97.8569C48.356 98.0783 50.4865 98.7397 52.4225 99.8016C54.2055 100.769 55.7373 102.139 56.8958 103.802C58.3442 105.989 59.1538 108.535 59.2341 111.155L59.5144 165.011L58.9759 165.014L59.5144 164.997L59.5199 165.076C59.5081 166.433 59.2053 167.771 58.6318 169.001C58.1771 169.971 57.4803 170.807 56.6083 171.431C55.4769 172.192 54.1456 172.604 52.7811 172.614L11.2915 172.83L10.9022 98.0404L11.4414 98.0376L11.4442 98.5759L11.9834 98.5731L12.3644 171.753L52.7614 171.543L52.7642 172.078L52.7442 171.543C53.8997 171.538 55.0282 171.194 55.9884 170.552C57.0302 169.772 57.7744 168.66 58.0983 167.401C58.3183 166.647 58.4335 165.867 58.4408 165.082L58.1603 111.184L58.6969 111.182L58.1604 111.214C58.0906 108.787 57.3445 106.428 56.0057 104.4C54.4604 102.236 52.2705 100.613 49.7478 99.7633C48.8982 99.4578 48.0244 99.224 47.1356 99.0644C46.8062 99.0061 46.5416 98.9705 46.3639 98.9491L46.1593 98.9272L46.0954 98.9275L46.1303 98.3922L46.1331 98.9273L11.447 99.1079L11.4442 98.5727" fill="white"/>
<path d="M38.4619 98.4353L38.8321 169.54C38.8321 169.54 36.0246 171.961 33.1895 169.569L32.8193 98.4647L38.4619 98.4353Z" fill="#AAA9A8"/>
<path d="M78.3927 176.562C78.3591 172.021 79.6756 167.572 82.1756 163.779C84.6755 159.985 88.2465 157.017 92.4367 155.25C96.6268 153.484 101.248 152.998 105.714 153.854C110.181 154.711 114.293 156.871 117.53 160.062C120.766 163.252 122.982 167.33 123.896 171.778C124.81 176.226 124.382 180.845 122.666 185.051C120.95 189.256 118.023 192.859 114.255 195.403C110.487 197.946 106.048 199.317 101.499 199.341C98.484 199.36 95.4942 198.787 92.7009 197.652C89.9076 196.518 87.3654 194.846 85.2197 192.73C83.0739 190.615 81.3666 188.098 80.1952 185.324C79.0239 182.55 78.4113 179.572 78.3927 176.562Z" fill="#52423B"/>
<path d="M85.2486 176.526C85.2252 173.34 86.149 170.218 87.9033 167.557C89.6575 164.895 92.1632 162.812 95.1033 161.573C98.0434 160.333 101.286 159.993 104.42 160.593C107.554 161.194 110.439 162.71 112.71 164.949C114.981 167.187 116.536 170.048 117.178 173.17C117.819 176.291 117.519 179.532 116.315 182.483C115.111 185.434 113.057 187.961 110.414 189.747C107.77 191.532 104.655 192.494 101.464 192.511C99.348 192.524 97.25 192.121 95.29 191.325C93.3299 190.529 91.5461 189.356 90.0403 187.871C88.5346 186.387 87.3364 184.621 86.5143 182.675C85.6921 180.728 85.262 178.639 85.2486 176.526Z" fill="white"/>
<path d="M86.7831 176.518C86.762 173.635 87.5983 170.809 89.1861 168.401C90.7738 165.992 93.0417 164.107 95.7027 162.985C98.3636 161.864 101.298 161.556 104.135 162.1C106.971 162.644 109.582 164.016 111.637 166.042C113.692 168.068 115.099 170.658 115.68 173.483C116.26 176.307 115.988 179.241 114.898 181.911C113.808 184.582 111.949 186.869 109.556 188.485C107.163 190.1 104.344 190.97 101.456 190.985C99.541 190.997 97.6424 190.633 95.8685 189.912C94.0947 189.192 92.4804 188.13 91.1179 186.786C89.7553 185.443 88.6712 183.844 87.9274 182.083C87.1837 180.321 86.7948 178.43 86.7831 176.518Z" fill="#52423B"/>
<path d="M106.83 168.179L102.889 166.139L102.003 170.613L104.428 171.406L106.83 168.179Z" fill="white"/>
<path d="M97.3529 166.065L93.9361 168.894L97.7329 171.441L99.4052 169.523L97.3529 166.065Z" fill="white"/>
<path d="M91.5342 171.03L90.3482 175.293L94.9249 175.229L95.2012 172.701L91.5316 171.028" fill="white"/>
<path d="M90.1005 178.524L92.4482 182.275L95.4973 178.883L93.8204 176.969L90.0999 178.523" fill="white"/>
<path d="M94.5072 185.064L98.6776 186.585L98.9835 182.033L96.4779 181.558L94.5072 185.064Z" fill="white"/>
<path d="M101.812 186.571L106.137 185.572L103.89 181.602L101.532 182.564L101.815 186.571" fill="white"/>
<path d="M109.395 182.385L111.053 178.283L106.496 177.836L105.942 180.318L109.395 182.385Z" fill="white"/>
<path d="M111.141 173.973L109.124 170.028L105.793 173.158L107.303 175.203L111.141 173.971" fill="white"/>
<path d="M97.2715 176.317C97.2656 175.595 97.4743 174.888 97.8711 174.285C98.268 173.682 98.8351 173.21 99.5008 172.929C100.166 172.647 100.901 172.57 101.611 172.705C102.321 172.841 102.974 173.184 103.489 173.691C104.003 174.198 104.356 174.845 104.502 175.552C104.647 176.259 104.579 176.993 104.307 177.661C104.035 178.33 103.57 178.903 102.971 179.307C102.372 179.711 101.667 179.929 100.944 179.933C100.465 179.937 99.9902 179.846 99.5463 179.666C99.1025 179.486 98.6985 179.221 98.3575 178.885C98.0164 178.549 97.745 178.149 97.5586 177.709C97.3723 177.268 97.2747 176.795 97.2715 176.317Z" fill="white"/>
<path d="M311.332 175.349C311.299 170.808 312.615 166.359 315.115 162.566C317.615 158.772 321.187 155.804 325.377 154.037C329.567 152.271 334.188 151.785 338.655 152.642C343.122 153.499 347.234 155.659 350.47 158.85C353.707 162.041 355.922 166.119 356.836 170.567C357.75 175.016 357.321 179.635 355.605 183.84C353.888 188.046 350.96 191.648 347.192 194.191C343.424 196.735 338.984 198.105 334.436 198.128C331.421 198.147 328.431 197.573 325.638 196.439C322.845 195.305 320.303 193.632 318.158 191.517C316.012 189.401 314.305 186.885 313.134 184.111C311.963 181.337 311.351 178.36 311.332 175.349Z" fill="#52423B"/>
<path d="M318.185 175.314C318.161 172.127 319.085 169.004 320.839 166.342C322.593 163.679 325.099 161.596 328.04 160.356C330.981 159.116 334.224 158.775 337.359 159.376C340.493 159.977 343.379 161.493 345.651 163.732C347.922 165.971 349.477 168.833 350.119 171.955C350.761 175.076 350.46 178.318 349.256 181.27C348.051 184.221 345.997 186.749 343.352 188.535C340.708 190.32 337.592 191.282 334.4 191.298C330.127 191.325 326.018 189.656 322.977 186.658C319.936 183.661 318.213 179.58 318.185 175.314Z" fill="white"/>
<path d="M319.72 175.306C319.699 172.422 320.535 169.596 322.123 167.187C323.711 164.777 325.979 162.892 328.64 161.771C331.301 160.649 334.236 160.34 337.073 160.885C339.91 161.429 342.521 162.801 344.577 164.828C346.632 166.854 348.039 169.444 348.619 172.269C349.2 175.094 348.927 178.028 347.837 180.699C346.747 183.37 344.887 185.657 342.494 187.273C340.1 188.888 337.281 189.758 334.392 189.772C332.477 189.784 330.579 189.42 328.805 188.699C327.032 187.979 325.417 186.916 324.055 185.573C322.693 184.23 321.608 182.631 320.865 180.87C320.121 179.108 319.732 177.217 319.72 175.306Z" fill="#52423B"/>
<path d="M339.767 166.966L335.828 164.927L334.941 169.401L337.365 170.193L339.767 166.966Z" fill="white"/>
<path d="M330.29 164.853L326.873 167.683L330.669 170.229L332.344 168.312L330.29 164.854" fill="white"/>
<path d="M324.476 169.817L323.29 174.081L327.865 174.017L328.141 171.489L324.476 169.817Z" fill="white"/>
<path d="M323.045 177.312L325.391 181.063L328.44 177.671L326.762 175.756L323.044 177.31" fill="white"/>
<path d="M327.449 183.852L331.614 185.372L331.922 180.821L329.417 180.346L327.449 183.852Z" fill="white"/>
<path d="M334.749 185.358L339.073 184.359L336.829 180.39L334.471 181.351L334.747 185.358" fill="white"/>
<path d="M342.331 181.173L343.99 177.071L339.435 176.624L338.879 179.105L342.331 181.173Z" fill="white"/>
<path d="M344.08 172.76L342.06 168.816L338.73 171.945L340.243 173.991L344.08 172.759" fill="white"/>
<path d="M330.214 175.104C330.208 174.383 330.417 173.677 330.814 173.074C331.211 172.472 331.778 172.001 332.443 171.72C333.109 171.439 333.842 171.362 334.552 171.498C335.261 171.634 335.914 171.977 336.428 172.484C336.942 172.99 337.294 173.638 337.439 174.344C337.584 175.05 337.516 175.784 337.244 176.451C336.971 177.119 336.507 177.691 335.908 178.095C335.31 178.499 334.605 178.717 333.883 178.721C333.404 178.724 332.93 178.633 332.486 178.453C332.042 178.273 331.639 178.007 331.298 177.671C330.957 177.335 330.686 176.936 330.5 176.495C330.314 176.055 330.217 175.582 330.214 175.104Z" fill="white"/>
<path d="M5.32622 85.4494L5.05328 90.9498C5.05328 90.9498 316.314 96.9366 357.108 89.1171C357.108 89.1171 362.831 90.9486 361.919 83.5931L5.32622 85.4494Z" fill="white"/>
</g>
<defs>
<clipPath id="clip0_23_445">
<rect width="368" height="198" fill="white" transform="translate(0 1.91553) rotate(-0.298258)"/>
</clipPath>
</defs>
</svg>
