<?xml version="1.0" standalone="no"?>
<!DOCTYPE svg PUBLIC "-//W3C//DTD SVG 20010904//EN"
 "http://www.w3.org/TR/2001/REC-SVG-20010904/DTD/svg10.dtd">
<svg version="1.0" xmlns="http://www.w3.org/2000/svg"
 width="512.000000pt" height="512.000000pt" viewBox="0 0 512.000000 512.000000"
 preserveAspectRatio="xMidYMid meet">

<g transform="translate(0.000000,512.000000) scale(0.100000,-0.100000)"
fill="#000000" stroke="none">
<path d="M3441 4899 c-100 -40 -147 -148 -106 -246 24 -57 42 -71 165 -132
383 -189 663 -431 886 -768 350 -527 450 -1189 274 -1801 -120 -414 -369 -791
-705 -1067 -130 -107 -249 -184 -415 -268 -170 -87 -196 -110 -214 -194 -24
-109 90 -225 206 -210 55 7 292 126 429 215 408 266 738 650 933 1088 345 775
289 1652 -152 2374 -258 421 -665 781 -1108 979 -93 42 -144 50 -193 30z"/>
<path d="M2255 4589 c-35 -9 -115 -85 -621 -595 l-581 -584 -453 0 c-436 0
-455 -1 -496 -20 -24 -12 -54 -39 -70 -62 l-29 -41 -3 -711 c-2 -487 0 -723 8
-748 6 -20 23 -51 37 -69 54 -64 51 -64 553 -67 l455 -3 585 -584 c520 -519
589 -584 623 -591 89 -16 167 20 212 97 20 34 20 52 20 1939 l0 1905 -23 42
c-41 77 -128 114 -217 92z"/>
<path d="M3089 4142 c-94 -61 -114 -187 -42 -272 14 -17 67 -52 117 -77 236
-118 416 -274 551 -478 155 -234 227 -478 226 -765 0 -224 -46 -412 -148 -613
-140 -274 -340 -469 -630 -614 -123 -61 -148 -94 -148 -194 0 -60 3 -71 31
-106 40 -50 87 -73 150 -73 43 0 71 10 165 58 191 97 317 190 469 348 153 158
265 325 344 513 273 647 146 1369 -329 1878 -143 153 -303 272 -496 369 -125
63 -192 70 -260 26z"/>
<path d="M2845 3415 c-5 -2 -22 -6 -37 -9 -37 -8 -98 -63 -114 -103 -17 -39
-18 -101 -3 -140 16 -44 58 -81 134 -121 138 -72 254 -223 284 -370 50 -240
-66 -477 -292 -600 -100 -55 -132 -99 -132 -183 0 -48 5 -65 30 -101 55 -79
153 -102 248 -60 113 50 241 151 323 253 138 173 204 362 204 582 0 343 -197
661 -505 814 -57 29 -118 45 -140 38z"/>
</g>
</svg>
