<svg width="251" height="251" viewBox="0 0 251 251" fill="none" xmlns="http://www.w3.org/2000/svg">
<g clip-path="url(#clip0_20_189)">
<path d="M14.8508 87.5794L14.8229 87.5654C14.8229 87.5654 0.522919 174.14 0.522919 186.62C0.522919 199.337 9.88661 209.642 21.4396 209.642C26.1807 209.642 30.5035 207.843 34.0105 204.915L104.89 142.597L14.8508 87.5794ZM235.801 87.5794L235.828 87.5654C235.828 87.5654 250.128 174.14 250.128 186.62C250.128 199.337 240.765 209.642 229.212 209.642C224.471 209.642 220.148 207.843 216.641 204.915L145.761 142.597L235.801 87.5794Z" fill="#31373D"/>
<path d="M181.103 151.689C213.834 151.689 240.367 125.156 240.367 92.425C240.367 59.6945 213.834 33.1611 181.103 33.1611C148.373 33.1611 121.84 59.6945 121.84 92.425C121.84 125.156 148.373 151.689 181.103 151.689Z" fill="#14171A"/>
<path d="M69.5479 151.689C102.278 151.689 128.812 125.156 128.812 92.425C128.812 59.6945 102.278 33.1611 69.5479 33.1611C36.8174 33.1611 10.284 59.6945 10.284 92.425C10.284 125.156 36.8174 151.689 69.5479 151.689Z" fill="#14171A"/>
<path d="M69.5479 33.1611H181.103V150.783H69.5479V33.1611Z" fill="#14171A"/>
<path d="M91.1618 181.321C110.415 181.321 126.023 165.713 126.023 146.46C126.023 127.206 110.415 111.599 91.1618 111.599C71.9085 111.599 56.3007 127.206 56.3007 146.46C56.3007 165.713 71.9085 181.321 91.1618 181.321Z" fill="#14171A"/>
<path d="M159.49 181.321C178.743 181.321 194.351 165.713 194.351 146.46C194.351 127.206 178.743 111.599 159.49 111.599C140.236 111.599 124.628 127.206 124.628 146.46C124.628 165.713 140.236 181.321 159.49 181.321Z" fill="#14171A"/>
<path d="M159.49 167.376C171.042 167.376 180.406 158.012 180.406 146.46C180.406 134.908 171.042 125.543 159.49 125.543C147.938 125.543 138.573 134.908 138.573 146.46C138.573 158.012 147.938 167.376 159.49 167.376Z" fill="#67757F"/>
<path d="M91.1618 167.376C102.714 167.376 112.078 158.012 112.078 146.46C112.078 134.908 102.714 125.543 91.1618 125.543C79.6099 125.543 70.2451 134.908 70.2451 146.46C70.2451 158.012 79.6099 167.376 91.1618 167.376Z" fill="#67757F"/>
<path d="M179.43 72.7983C185.603 72.7983 190.607 67.7944 190.607 61.6218C190.607 55.4492 185.603 50.4453 179.43 50.4453C173.258 50.4453 168.254 55.4492 168.254 61.6218C168.254 67.7944 173.258 72.7983 179.43 72.7983Z" fill="#FFCC4D"/>
<path d="M179.43 117.936C185.603 117.936 190.607 112.933 190.607 106.76C190.607 100.587 185.603 95.5835 179.43 95.5835C173.258 95.5835 168.254 100.587 168.254 106.76C168.254 112.933 173.258 117.936 179.43 117.936Z" fill="#77B255"/>
<path d="M156.861 95.3673C163.034 95.3673 168.038 90.3635 168.038 84.1909C168.038 78.0183 163.034 73.0144 156.861 73.0144C150.688 73.0144 145.685 78.0183 145.685 84.1909C145.685 90.3635 150.688 95.3673 156.861 95.3673Z" fill="#50A5E6"/>
<path d="M201.999 95.3673C208.172 95.3673 213.176 90.3635 213.176 84.1909C213.176 78.0183 208.172 73.0144 201.999 73.0144C195.827 73.0144 190.823 78.0183 190.823 84.1909C190.823 90.3635 195.827 95.3673 201.999 95.3673Z" fill="#DD2E44"/>
<path d="M77.7263 71.2503V56.1345C77.7263 55.2007 77.3554 54.3051 76.6951 53.6448C76.0347 52.9845 75.1392 52.6135 74.2054 52.6135H63.3426C62.4088 52.6135 61.5132 52.9845 60.8529 53.6448C60.1926 54.3051 59.8217 55.2007 59.8217 56.1345V71.2503L68.774 80.2096L77.7263 71.2503ZM59.8147 96.5594V111.675C59.8147 113.62 61.3904 115.196 63.3357 115.196H74.1984C75.1322 115.196 76.0278 114.825 76.6881 114.165C77.3484 113.505 77.7194 112.609 77.7194 111.675V96.5594L68.767 87.6001L59.8147 96.5594ZM96.5513 74.9456H81.4356L72.4762 83.9049L81.4356 92.8642H96.5513C97.4846 92.8623 98.3791 92.4908 99.039 91.8309C99.6989 91.171 100.07 90.2765 100.072 89.3432V78.4735C100.072 77.539 99.7016 76.6427 99.0415 75.9813C98.3813 75.3199 97.4858 74.9474 96.5513 74.9456ZM56.1194 74.9456H40.9967C40.0634 74.9474 39.1689 75.3189 38.509 75.9789C37.8491 76.6388 37.4775 77.5333 37.4757 78.4665V89.3293C37.4757 91.2745 39.0514 92.8502 40.9967 92.8502H56.1124L65.0717 83.8909L56.1194 74.9456Z" fill="#8899A6"/>
</g>
<defs>
<clipPath id="clip0_20_189">
<rect width="251" height="251" fill="white"/>
</clipPath>
</defs>
</svg>
