<?xml version="1.0" encoding="iso-8859-1"?>
<!-- Generator: Adobe Illustrator 19.0.0, SVG Export Plug-In . SVG Version: 6.00 Build 0)  -->
<svg version="1.1" id="Layer_1" xmlns="http://www.w3.org/2000/svg" xmlns:xlink="http://www.w3.org/1999/xlink" x="0px" y="0px"
	 viewBox="0 0 512.001 512.001" style="enable-background:new 0 0 512.001 512.001;" xml:space="preserve">
<path style="fill:#FF0029;" d="M160.516,91.899h-45.105c-12.362,0-22.382,10.021-22.382,22.382v8.045
	c0,12.362,10.021,22.382,22.382,22.382h67.488v-30.428C182.899,101.921,172.878,91.899,160.516,91.899z"/>
<path style="fill:#940009;" d="M351.485,91.899h45.105c12.362,0,22.382,10.021,22.382,22.382v8.045
	c0,12.362-10.021,22.382-22.382,22.382h-67.488v-30.428C329.102,101.921,339.123,91.899,351.485,91.899z"/>
<path style="fill:#3E3E42;" d="M510.346,349.777l-41.741-169.798c-11.36-46.211-58.031-74.463-104.242-63.104
	c-11.709,2.878-22.259,8.032-31.31,14.862H178.947c-9.051-6.831-19.6-11.984-31.31-14.862
	c-46.211-11.36-92.882,16.892-104.242,63.104L1.655,349.777c-7.485,30.446,11.13,61.195,41.575,68.679
	c23.974,5.893,49.008-4.382,61.927-25.419l62.299-101.442h177.089l62.299,101.442c12.919,21.037,37.953,31.312,61.927,25.419
	C499.217,410.973,517.831,380.224,510.346,349.777z"/>
<path style="fill:#797882;" d="M260.197,131.739h-81.249c-9.05-6.831-19.6-11.984-31.31-14.862
	c-46.211-11.36-92.882,16.892-104.242,63.104L1.655,349.777c-7.485,30.446,11.13,61.195,41.575,68.679
	c23.974,5.893,49.008-4.382,61.927-25.419l62.299-101.442h92.741V131.739z"/>
<g>
	<circle style="fill:#1D1D1F;" cx="188.573" cy="300.765" r="58.188"/>
	<circle style="fill:#1D1D1F;" cx="333.544" cy="300.765" r="58.188"/>
</g>
<circle style="fill:#0075C2;" cx="394.212" cy="158.625" r="13.921"/>
<circle style="fill:#CF323B;" cx="394.212" cy="208.896" r="13.921"/>
<circle style="fill:#5BBBED;" cx="419.347" cy="183.761" r="13.921"/>
<circle style="fill:#FFB64A;" cx="369.076" cy="183.761" r="13.921"/>
<g>
	<path style="fill:#C6C5CA;" d="M133.844,161.913c0,1.943-0.905,3.774-2.448,4.954l-8.909,6.813c-2.236,1.71-5.34,1.71-7.576,0
		l-8.909-6.813c-1.543-1.18-2.448-3.012-2.448-4.954v-6.422c0-3.445,2.792-6.236,6.236-6.236h17.818
		c3.445,0,6.236,2.792,6.236,6.236v6.422H133.844z"/>
	<path style="fill:#C6C5CA;" d="M133.844,208.702c0-1.943-0.905-3.774-2.448-4.954l-8.909-6.813c-2.236-1.71-5.34-1.71-7.576,0
		l-8.909,6.813c-1.543,1.18-2.448,3.012-2.448,4.954v6.422c0,3.445,2.792,6.236,6.236,6.236h17.818c3.445,0,6.236-2.792,6.236-6.236
		v-6.422H133.844z"/>
	<path style="fill:#C6C5CA;" d="M142.093,200.454c-1.943,0-3.774-0.905-4.954-2.448l-6.813-8.909c-1.71-2.236-1.71-5.34,0-7.576
		l6.813-8.909c1.18-1.543,3.012-2.448,4.954-2.448h6.422c3.445,0,6.236,2.792,6.236,6.236v17.818c0,3.445-2.792,6.236-6.236,6.236
		h-6.422V200.454z"/>
	<path style="fill:#C6C5CA;" d="M95.305,200.454c1.943,0,3.774-0.905,4.954-2.448l6.813-8.909c1.71-2.236,1.71-5.34,0-7.576
		l-6.813-8.909c-1.18-1.543-3.012-2.448-4.954-2.448h-6.422c-3.445,0-6.236,2.792-6.236,6.236v17.818
		c0,3.445,2.792,6.236,6.237,6.236h6.42V200.454z"/>
</g>
<path style="fill:#3E3E42;" d="M242.04,219.994h-46.195c-4.019,0-7.275-3.258-7.275-7.275v-16.156c0-4.019,3.258-7.275,7.275-7.275
	h46.195c4.019,0,7.275,3.258,7.275,7.275v16.156C249.315,216.736,246.058,219.994,242.04,219.994z"/>
<path style="fill:#1D1D1F;" d="M321.847,219.994h-46.195c-4.019,0-7.275-3.258-7.275-7.275v-16.156c0-4.019,3.258-7.275,7.275-7.275
	h46.195c4.019,0,7.275,3.258,7.275,7.275v16.156C329.122,216.736,325.866,219.994,321.847,219.994z"/>
<g>
	<path style="fill:#3E3E42;" d="M130.381,300.769c0,32.137,26.052,58.188,58.188,58.188V242.581
		C156.432,242.581,130.381,268.632,130.381,300.769z"/>
	<path style="fill:#3E3E42;" d="M275.354,300.769c0,32.137,26.051,58.188,58.188,58.188V242.581
		C301.405,242.581,275.354,268.632,275.354,300.769z"/>
</g>
<g>
</g>
<g>
</g>
<g>
</g>
<g>
</g>
<g>
</g>
<g>
</g>
<g>
</g>
<g>
</g>
<g>
</g>
<g>
</g>
<g>
</g>
<g>
</g>
<g>
</g>
<g>
</g>
<g>
</g>
</svg>
