<?xml version="1.0" standalone="no"?>
<!DOCTYPE svg PUBLIC "-//W3C//DTD SVG 20010904//EN"
 "http://www.w3.org/TR/2001/REC-SVG-20010904/DTD/svg10.dtd">
<svg version="1.0" xmlns="http://www.w3.org/2000/svg"
 width="512.000000pt" height="512.000000pt" viewBox="0 0 512.000000 512.000000"
 preserveAspectRatio="xMidYMid meet">

<g transform="translate(0.000000,512.000000) scale(0.100000,-0.100000)"
fill="#000000" stroke="none">
<path d="M2325 5109 c-1035 -98 -1907 -879 -2119 -1898 -39 -185 -50 -294 -50
-486 1 -337 53 -609 175 -918 268 -674 851 -1198 1567 -1408 147 -43 219 -43
307 0 212 105 235 397 40 531 -23 16 -89 43 -146 60 -339 100 -592 250 -820
487 -326 339 -499 767 -499 1234 0 477 179 913 513 1251 346 350 774 529 1267
529 493 0 921 -179 1267 -529 276 -279 440 -611 499 -1012 22 -151 14 -428
-15 -574 -54 -266 -165 -516 -320 -726 -75 -102 -228 -259 -328 -336 -79 -63
-249 -174 -264 -174 -4 0 -9 93 -11 208 -3 191 -5 211 -26 258 -29 64 -92 126
-157 156 -73 33 -191 32 -259 -2 -69 -35 -132 -102 -156 -167 -20 -53 -20 -72
-18 -711 l3 -657 23 -46 c31 -63 86 -117 152 -148 l55 -26 665 0 665 0 51 23
c105 48 174 149 182 266 5 93 -21 167 -84 231 -83 86 -97 89 -429 95 l-290 5
100 65 c912 593 1316 1717 989 2750 -243 768 -866 1372 -1639 1588 -287 81
-596 109 -890 81z"/>
</g>
</svg>
