<?xml version="1.0" encoding="utf-8"?>
<!-- Generator: Adobe Illustrator 19.2.0, SVG Export Plug-In . SVG Version: 6.00 Build 0)  -->
<svg xmlns="http://www.w3.org/2000/svg" xmlns:xlink="http://www.w3.org/1999/xlink" version="1.1" id="router" x="0px" y="0px" viewBox="0 0 224 174.3197" enable-background="new 0 0 224 174.3197" xml:space="preserve" width="512" height="512">
<g>
	<circle fill="#D0E8FF" cx="177" cy="139.3197" r="7"/>
	<path fill="#5CB0FF" d="M204.0293,114.3197H19.9707c-6.6016,0-11.9707,5.3828-11.9707,12v28c0,6.6172,5.3691,12,11.9707,12   h184.0586c6.6016,0,11.9707-5.3828,11.9707-12v-28C216,119.7025,210.6309,114.3197,204.0293,114.3197z M32,148.3197h-8v-20h8   V148.3197z M52,148.3197h-8v-20h8V148.3197z M72,148.3197h-8v-20h8V148.3197z M92,148.3197h-8v-20h8V148.3197z M112,148.3197h-8   v-20h8V148.3197z M177,154.3197c-8.2715,0-15-6.7285-15-15s6.7285-15,15-15s15,6.7285,15,15S185.2715,154.3197,177,154.3197z"/>
	<path fill="#1C71DA" d="M204.0293,106.3197H19.9707c-11.0117,0-19.9707,8.9727-19.9707,20v28c0,11.0273,8.959,20,19.9707,20   h184.0586c11.0117,0,19.9707-8.9727,19.9707-20v-28C224,115.2924,215.041,106.3197,204.0293,106.3197z M216,154.3197   c0,6.6172-5.3691,12-11.9707,12H19.9707c-6.6016,0-11.9707-5.3828-11.9707-12v-28c0-6.6172,5.3691-12,11.9707-12h184.0586   c6.6016,0,11.9707,5.3828,11.9707,12V154.3197z"/>
	<path fill="#1C71DA" d="M177,124.3197c-8.2715,0-15,6.7285-15,15s6.7285,15,15,15s15-6.7285,15-15S185.2715,124.3197,177,124.3197z    M177,146.3197c-3.8594,0-7-3.1406-7-7s3.1406-7,7-7s7,3.1406,7,7S180.8594,146.3197,177,146.3197z"/>
	<rect x="24" y="128.3197" fill="#FFFFFF" width="8" height="20"/>
	<rect x="44" y="128.3197" fill="#FFFFFF" width="8" height="20"/>
	<rect x="64" y="128.3197" fill="#FFFFFF" width="8" height="20"/>
	<rect x="84" y="128.3197" fill="#FFFFFF" width="8" height="20"/>
	<rect x="104" y="128.3197" fill="#FFFFFF" width="8" height="20"/>
	<rect x="148" y="28.3197" fill="#1C71DA" width="8" height="72"/>
	<rect x="68" y="28.3197" fill="#1C71DA" width="8" height="72"/>
</g>
<path fill="#FF5D5D" d="M4.2524,22.1434c-1.0239,0-2.0474-0.3906-2.8286-1.1714c-1.562-1.5625-1.562-4.0947,0-5.6572L15.5659,1.1727  c1.5625-1.5615,4.0947-1.5615,5.6572,0c1.562,1.5625,1.562,4.0947,0,5.6572L7.0811,20.972  C6.2998,21.7528,5.2764,22.1434,4.2524,22.1434z"/>
<path fill="#FF5D5D" d="M18.3945,22.142c-1.0239,0-2.0474-0.3906-2.8286-1.1714L1.4238,6.828c-1.562-1.5625-1.562-4.0952,0-5.6572  c1.563-1.5615,4.0952-1.5605,5.6572,0l14.1421,14.1426c1.562,1.5625,1.562,4.0952,0,5.6572  C20.4419,21.7513,19.418,22.142,18.3945,22.142z"/>
<path fill="#00D40B" d="M30.2524,86.1434c-7.7197,0-14-6.2803-14-14s6.2803-14,14-14s14,6.2803,14,14  S37.9722,86.1434,30.2524,86.1434z M30.2524,66.1434c-3.3086,0-6,2.6914-6,6s2.6914,6,6,6s6-2.6914,6-6  S33.561,66.1434,30.2524,66.1434z"/>
<path fill="#FFC504" d="M195.5659,88.7689c-1.0239,0-2.0474-0.3906-2.8286-1.1714l-11.3135-11.3135  c-1.562-1.5625-1.562-4.0947,0-5.6572l11.3135-11.3135c1.5625-1.5615,4.0952-1.5615,5.6567,0l11.314,11.3135  c0.7505,0.7505,1.1719,1.7676,1.1719,2.8286s-0.4214,2.0781-1.1719,2.8286l-11.314,11.3135  C197.6133,88.3783,196.5894,88.7689,195.5659,88.7689z M189.9092,73.4554l5.6567,5.6567l5.6572-5.6567l-5.6572-5.6567  L189.9092,73.4554z"/>
</svg>
