<svg width="305" height="115" viewBox="0 0 305 115" fill="none" xmlns="http://www.w3.org/2000/svg">
<g clip-path="url(#clip0_5_28)">
<path d="M157.466 38.0908L171.976 37.1386C172.307 39.5472 172.914 41.3397 173.907 42.6281C175.507 44.6447 177.714 45.6529 180.639 45.6529C182.79 45.6529 184.501 45.1488 185.659 44.0845C186.763 43.2443 187.425 41.8999 187.425 40.4995C187.425 39.1551 186.818 37.8668 185.77 37.0265C184.666 36.0183 182.073 35.01 177.99 34.1137C171.314 32.6013 166.514 30.5847 163.7 28.008C160.886 25.5994 159.286 22.0704 159.397 18.3173C159.397 15.7406 160.169 13.1639 161.604 11.0353C163.259 8.62664 165.521 6.72211 168.225 5.65781C171.149 4.36945 175.232 3.69727 180.363 3.69727C186.653 3.69727 191.453 4.87359 194.763 7.28226C198.073 9.63492 200.06 13.444 200.667 18.6534L186.321 19.4937C185.935 17.253 185.163 15.6286 183.894 14.5643C182.625 13.5 180.97 12.9959 178.818 12.9959C177.052 12.9959 175.728 13.388 174.845 14.1162C174.018 14.7884 173.466 15.7966 173.521 16.9169C173.521 17.7572 173.963 18.5414 174.625 19.0455C175.342 19.7177 177.052 20.3339 179.756 20.8941C186.432 22.3505 191.177 23.8069 194.101 25.3193C197.025 26.8317 199.122 28.6802 200.391 30.8648C201.715 33.1054 202.377 35.6822 202.322 38.3149C202.322 41.4518 201.439 44.5886 199.673 47.2214C197.853 49.9661 195.315 52.0947 192.335 53.3831C189.191 54.7835 185.218 55.5117 180.473 55.5117C172.087 55.5117 166.293 53.8872 163.038 50.5823C159.783 47.2774 157.852 43.1322 157.466 38.0908ZM3.47594 54.6714V4.59351H28.911C33.6008 4.59351 37.2422 4.98562 39.725 5.82586C42.1527 6.61008 44.3045 8.23453 45.739 10.4191C47.339 12.8278 48.1114 15.6286 48.0563 18.5414C48.2218 23.4708 45.739 28.1761 41.4906 30.6408C39.8354 31.593 38.0147 32.2652 36.1388 32.6013C37.5181 32.9934 38.8974 33.6656 40.1113 34.4498C41.0492 35.234 41.8216 36.1303 42.5389 37.0826C43.3665 38.0348 44.0838 39.0991 44.6907 40.2194L52.0839 54.7275H34.7594L26.5937 39.3232C25.5454 37.3626 24.6626 36.0743 23.835 35.4581C22.7316 34.6739 21.4074 34.2818 20.0832 34.2818H18.759V54.6154H3.47594V54.6714ZM18.759 24.8712H25.2144C26.5937 24.7591 27.9179 24.5351 29.242 24.199C30.2352 24.0309 31.1179 23.4708 31.7249 22.6305C33.2145 20.614 32.9939 17.7572 31.1731 16.0207C30.18 15.1805 28.2489 14.7323 25.4902 14.7323H18.759V24.8712ZM0 97.5794L14.5107 96.6271C14.8417 99.0358 15.4486 100.828 16.4418 102.117C17.9866 104.133 20.2487 105.198 23.1729 105.198C25.3247 105.198 27.0351 104.693 28.1937 103.629C29.2972 102.733 29.9593 101.444 29.9593 100.044C29.9593 98.6997 29.3524 97.4113 28.3041 96.5711C27.2006 95.5628 24.6075 94.5545 20.4694 93.6583C13.7934 92.1459 8.99331 90.1293 6.17945 87.5526C3.36559 85.1439 1.76556 81.6149 1.8759 77.8619C1.8759 75.2852 2.64834 72.7085 4.08285 70.5799C5.73806 68.1712 8.00018 66.2667 10.7037 65.2024C13.6279 63.914 17.7107 63.2418 22.8419 63.2418C29.1317 63.2418 33.9318 64.4182 37.2422 66.8268C40.5526 69.2355 42.4837 72.9885 43.0906 78.198L28.7455 79.0382C28.3593 76.7976 27.5868 75.1732 26.3178 74.1089C25.104 73.0446 23.3936 72.5404 21.2419 72.5964C19.4763 72.5964 18.1521 72.9885 17.2694 73.7728C16.3866 74.445 15.89 75.4532 15.9452 76.5735C15.9452 77.4138 16.3866 78.198 17.0487 78.7021C17.7659 79.3743 19.4763 79.9905 22.1798 80.5507C28.8558 82.0071 33.6008 83.4635 36.525 84.9759C39.4492 86.4883 41.5458 88.3368 42.8148 90.5214C44.1389 92.762 44.801 95.3388 44.801 97.9155C44.801 101.052 43.8631 104.133 42.1527 106.766C40.332 109.511 37.794 111.639 34.8146 112.928C31.6697 114.328 27.6972 115.056 22.9522 115.056C14.5658 115.056 8.77261 113.432 5.51737 110.127C2.26212 106.766 0.441389 102.621 0 97.5794H0Z" fill="black"/>
<path d="M73.381 93.6582L86.733 97.7473C86.0158 101.164 84.5261 104.413 82.4847 107.27C80.6087 109.791 78.1259 111.751 75.3121 113.04C72.443 114.328 68.8016 115 64.3877 115C59.0358 115 54.622 114.216 51.2564 112.647C47.8356 111.079 44.9114 108.278 42.4286 104.301C39.9458 100.324 38.7319 95.2266 38.7319 89.0089C38.7319 80.7186 40.8837 74.3328 45.2424 69.9076C49.6011 65.4823 55.7254 63.2417 63.6704 63.2417C69.9051 63.2417 74.7603 64.5301 78.3466 67.0508C81.8777 69.6275 84.5261 73.5486 86.2916 78.814L72.8293 81.8389C72.4982 80.6625 72.0017 79.4862 71.3396 78.4779C70.512 77.3016 69.4637 76.4054 68.1947 75.7332C66.9257 75.061 65.4912 74.7809 64.0566 74.7809C60.5807 74.7809 57.9324 76.1813 56.1116 79.0381C54.7323 81.1107 54.015 84.4156 54.015 88.8968C54.015 94.4424 54.8426 98.2514 56.4979 100.324C58.1531 102.397 60.4704 103.405 63.5049 103.405C66.4291 103.405 68.6361 102.565 70.1257 100.94C71.6154 99.2037 72.7189 96.795 73.381 93.6582ZM104.554 64.0819H119.782V81.6148H136.444V64.0819H151.783V114.16H136.444V93.8822H119.782V114.16H104.554V64.0819Z" fill="black"/>
<path d="M149.686 89.1208C149.686 80.9425 151.948 74.5567 156.417 70.0194C160.886 65.4822 167.176 63.1855 175.176 63.1855C183.397 63.1855 189.687 65.4262 194.156 69.9074C198.625 74.3887 200.832 80.6624 200.832 88.7286C200.832 94.6103 199.839 99.3716 197.908 103.125C196.032 106.822 193.108 109.847 189.522 111.863C185.825 113.936 181.246 115 175.783 115C170.211 115 165.631 114.104 161.99 112.311C158.238 110.407 155.148 107.438 153.107 103.797C150.845 99.8758 149.686 95.0024 149.686 89.1208ZM164.914 89.1768C164.914 94.2182 165.852 97.8592 167.673 100.1C169.494 102.284 172.031 103.405 175.232 103.405C178.487 103.405 181.025 102.34 182.846 100.156C184.666 97.9712 185.549 94.1061 185.549 88.5046C185.549 83.7993 184.611 80.3263 182.735 78.1977C180.859 76.0131 178.321 74.9488 175.121 74.9488C172.307 74.8368 169.604 76.0691 167.728 78.2537C165.852 80.4383 164.914 84.0794 164.914 89.1768ZM216.446 89.1208C216.446 80.9425 218.708 74.5567 223.177 70.0194C227.647 65.4822 233.936 63.1855 241.937 63.1855C250.157 63.1855 256.502 65.4262 260.916 69.9074C265.33 74.3887 267.592 80.6624 267.592 88.7286C267.592 94.6103 266.599 99.3716 264.668 103.125C262.792 106.822 259.868 109.847 256.282 111.863C252.585 113.936 248.006 115 242.543 115C236.971 115 232.391 114.104 228.75 112.311C224.998 110.407 221.908 107.438 219.867 103.797C217.605 99.8758 216.446 95.0024 216.446 89.1208ZM231.674 89.1768C231.674 94.2182 232.612 97.8592 234.433 100.1C236.254 102.284 238.792 103.405 241.992 103.405C245.247 103.405 247.785 102.34 249.606 100.156C251.426 97.9712 252.309 94.1061 252.309 88.5046C252.309 83.7993 251.371 80.3263 249.495 78.1977C247.619 76.0131 245.081 74.9488 241.881 74.9488C239.067 74.8368 236.309 76.0691 234.488 78.2537C232.612 80.4383 231.674 84.0794 231.674 89.1768Z" fill="black"/>
<path d="M265.992 64.082H281.22V101.837H305V114.16H265.937V64.082H265.992Z" fill="black"/>
<path d="M249.208 61.192C264.539 49.4623 269.267 29.5786 259.767 16.7806C250.268 3.98249 230.138 3.11637 214.807 14.846C199.476 26.5757 194.748 46.4594 204.248 59.2574C213.747 72.0555 233.876 72.9216 249.208 61.192Z" fill="white"/>
<path d="M165.148 31.6714L244.374 -28.9424L299.196 44.9158L219.97 105.53L165.148 31.6714Z" fill="white"/>
<path d="M249.208 61.1915C264.539 49.4618 269.267 29.5782 259.767 16.7801C250.268 3.982 230.138 3.11589 214.807 14.8455C199.476 26.5752 194.748 46.4589 204.248 59.2569C213.747 72.055 233.876 72.9211 249.208 61.1915Z" fill="white"/>
<path d="M187.21 36.603L242.686 -5.83916L277.119 40.5521L221.643 82.9943L187.21 36.603Z" fill="white"/>
<path d="M249.208 61.192C264.539 49.4623 269.267 29.5786 259.767 16.7806C250.268 3.98249 230.138 3.11637 214.807 14.846C199.476 26.5757 194.748 46.4594 204.248 59.2574C213.747 72.0555 233.876 72.9216 249.208 61.192Z" fill="white" stroke="black" stroke-width="4" stroke-miterlimit="10"/>
<path d="M187.21 36.603L242.686 -5.83916L277.119 40.5521L221.643 82.9943L187.21 36.603Z" stroke="black" stroke-width="4" stroke-miterlimit="10"/>
<path d="M249.208 61.1915C264.539 49.4618 269.267 29.5782 259.767 16.7801C250.268 3.982 230.138 3.11589 214.807 14.8455C199.476 26.5752 194.748 46.4589 204.248 59.2569C213.747 72.055 233.876 72.9211 249.208 61.1915Z" stroke="black" stroke-width="4" stroke-miterlimit="10"/>
<path d="M187.21 36.603L242.686 -5.83916L277.119 40.5521L221.643 82.9943L187.21 36.603Z" fill="white"/>
<path d="M249.208 61.192C264.539 49.4623 269.267 29.5786 259.767 16.7806C250.268 3.98249 230.138 3.11637 214.807 14.846C199.476 26.5757 194.748 46.4594 204.248 59.2574C213.747 72.0555 233.876 72.9216 249.208 61.192Z" fill="white" stroke="black" stroke-width="4" stroke-miterlimit="10"/>
<path d="M187.21 36.603L242.686 -5.83916L277.119 40.5521L221.643 82.9943L187.21 36.603Z" stroke="black" stroke-width="4" stroke-miterlimit="10"/>
<path d="M165.148 31.6714L244.374 -28.9424L299.196 44.9158L219.97 105.53L165.148 31.6714Z" stroke="black" stroke-width="4" stroke-miterlimit="10"/>
<path d="M249.208 61.1915C264.539 49.4618 269.267 29.5782 259.767 16.7801C250.268 3.982 230.138 3.11589 214.807 14.8455C199.476 26.5752 194.748 46.4589 204.248 59.2569C213.747 72.055 233.876 72.9211 249.208 61.1915Z" stroke="black" stroke-width="4" stroke-miterlimit="10"/>
<path d="M216.501 34.3373L222.019 30.4162L228.805 40.2189C229.964 41.7873 230.847 43.4678 231.509 45.3163C231.895 46.7167 231.785 48.2291 231.233 49.5735C230.516 51.254 229.357 52.6544 227.812 53.6627C225.991 54.951 224.446 55.6792 223.122 55.9033C221.853 56.1273 220.529 55.9033 219.315 55.3431C217.991 54.6709 216.832 53.7187 215.95 52.4863L220.695 48.0051C221.081 48.6212 221.577 49.1814 222.129 49.6295C222.515 49.9096 222.957 50.0777 223.453 50.0777C223.84 50.0777 224.226 49.9096 224.502 49.6855C225.053 49.3495 225.44 48.6773 225.384 48.0051C225.219 47.0528 224.833 46.1005 224.226 45.3723L216.501 34.3373ZM233.054 40.555L238.074 36.5219C238.626 37.1941 239.343 37.6982 240.116 37.9783C241.219 38.3144 242.378 38.0903 243.316 37.3621C243.978 36.914 244.53 36.2978 244.75 35.5136C245.081 34.5053 244.53 33.385 243.537 33.0489C243.371 32.9929 243.205 32.9369 243.04 32.9369C242.378 32.8809 241.219 33.1609 239.509 33.8892C236.695 35.0655 234.488 35.5136 232.833 35.3456C231.233 35.1775 229.743 34.3373 228.86 32.9369C228.198 31.9846 227.867 30.8643 227.812 29.744C227.812 28.4556 228.143 27.1673 228.86 26.103C229.909 24.5906 231.178 23.3022 232.722 22.2939C235.04 20.6695 237.081 19.8853 238.847 19.8853C240.612 19.8853 242.268 20.7255 243.812 22.462L238.847 26.4391C237.854 25.1507 235.978 24.8706 234.709 25.8789L234.543 26.047C233.992 26.3831 233.605 26.8872 233.385 27.5034C233.219 27.9515 233.329 28.4556 233.605 28.8477C233.826 29.1278 234.157 29.3519 234.543 29.3519C234.985 29.4079 235.757 29.1838 236.861 28.6797C239.619 27.5034 241.716 26.8312 243.15 26.6071C244.364 26.3831 245.633 26.4951 246.792 26.9992C247.84 27.4474 248.723 28.2316 249.33 29.1838C250.102 30.3042 250.544 31.6485 250.599 33.0489C250.654 34.5053 250.268 35.9057 249.495 37.1381C248.502 38.6505 247.233 39.9388 245.743 40.9471C242.709 43.0757 240.226 43.972 238.24 43.6359C236.088 43.2998 234.323 42.1795 233.054 40.555Z" fill="black"/>
</g>
<defs>
<clipPath id="clip0_5_28">
<rect width="305" height="115" fill="white"/>
</clipPath>
</defs>
</svg>
