<?xml version="1.0" encoding="iso-8859-1"?>
<!-- Generator: Adobe Illustrator 19.0.0, SVG Export Plug-In . SVG Version: 6.00 Build 0)  -->
<svg version="1.1" id="Layer_1" xmlns="http://www.w3.org/2000/svg" xmlns:xlink="http://www.w3.org/1999/xlink" x="0px" y="0px"
	 viewBox="0 0 512.001 512.001" style="enable-background:new 0 0 512.001 512.001;" xml:space="preserve">
<path style="fill:#FFD5DD;" d="M256,56.905c-52.484,0-95.03,42.547-95.03,95.03v68.605c0,52.484,42.547,95.03,95.03,95.03
	s95.03-42.547,95.03-95.03v-68.605C351.03,99.451,308.484,56.905,256,56.905z"/>
<path style="fill:#FFF5C6;" d="M256,56.905c-2.487,0-4.952,0.096-7.391,0.284c-19.804,1.524-37.904,9.121-52.45,20.928
	c-20.054,16.277-32.329,40.557-33.992,67.98c22.72-4.171,41.953-15.407,57.37-31.346c19.763,20.433,47.463,33.142,78.135,33.142
	c18.759,0,35.394-4.752,50.795-13.118C340.39,90.483,302.625,56.905,256,56.905z"/>
<path style="fill:#37B3CC;" d="M402.531,455.097v-87.949c0-43.566-28.794-80.402-68.389-92.527
	c-17.156,24.742-45.755,40.949-78.143,40.949s-60.987-16.207-78.143-40.949c-39.594,12.125-68.389,48.962-68.389,92.527v87.949
	H402.531z"/>
<path style="fill:#FFD5DD;" d="M166.22,251.712c-3.392-9.767-5.25-20.251-5.25-31.173v-68.605c0-17.108,4.524-33.158,12.435-47.025
	c-13.023-16.664-33.294-27.39-56.083-27.39c-39.298,0-71.157,31.857-71.157,71.157v51.37c0,39.298,31.857,71.156,71.157,71.156
	C136.267,271.202,153.469,263.783,166.22,251.712z"/>
<path style="fill:#FF932A;" d="M109.469,375.677v-8.529c0-43.566,28.794-80.402,68.388-92.527
	c-4.855-7.003-8.782-14.695-11.631-22.892c-12.75,12.069-29.96,19.474-48.903,19.474c-24.251,0-45.665-12.135-58.511-30.662
	c-29.647,9.077-51.207,36.66-51.207,69.281v65.855H109.469z"/>
<path style="fill:#F64B65;" d="M161.245,144.659c1.089-14.386,5.384-27.875,12.167-39.761C160.39,88.236,140.11,77.52,117.323,77.52
	c-1.863,0-3.708,0.072-5.535,0.213c-14.829,1.141-28.382,6.83-39.273,15.671c-15.016,12.188-23.952,30.369-25.197,50.902
	c17.013-3.124,31.159-11.536,42.702-23.471c14.798,15.3,35.54,24.816,58.506,24.816
	C152.853,145.649,157.101,145.309,161.245,144.659z"/>
<path style="fill:#FFD5DD;" d="M394.677,77.52c-22.789,0-43.06,10.726-56.083,27.39c7.912,13.867,12.435,29.917,12.435,47.025
	v68.605c0,10.923-1.857,21.406-5.25,31.173c12.751,12.071,29.952,19.489,48.897,19.489c39.298,0,71.157-31.857,71.157-71.157v-51.37
	C465.834,109.377,433.975,77.52,394.677,77.52z"/>
<path style="fill:#F64B65;" d="M504.396,375.677v-65.855c0-32.621-21.56-60.204-51.207-69.282
	c-12.846,18.527-34.26,30.662-58.511,30.662c-18.942,0-36.153-7.403-48.903-19.474c-2.849,8.196-6.776,15.889-11.632,22.892
	c39.594,12.125,68.388,48.962,68.388,92.527v8.529h101.866V375.677z"/>
<path style="fill:#FF932A;" d="M394.677,77.52c-1.863,0-3.708,0.072-5.535,0.213c-14.829,1.141-28.382,6.83-39.273,15.671
	c-4.182,3.394-7.954,7.269-11.271,11.514c5.202,9.119,8.937,19.183,10.885,29.871c6.602-3.81,12.626-8.511,17.891-13.954
	c14.798,15.3,35.54,24.816,58.506,24.816c14.046,0,26.247-3.558,37.779-9.823C457.611,102.662,429.588,77.52,394.677,77.52z"/>
<path style="fill:#002770;" d="M495.99,261.785c-8.195-10.908-19.198-19.62-31.6-25.149c5.766-10.941,9.048-23.386,9.048-36.59
	v-51.37c0-38.718-28.092-70.977-64.959-77.524c-0.063-0.011-0.126-0.022-0.189-0.033c-0.967-0.169-1.94-0.322-2.918-0.456
	c-0.348-0.049-0.698-0.09-1.046-0.134c-0.779-0.095-1.558-0.189-2.344-0.262c-0.622-0.059-1.245-0.099-1.869-0.143
	c-0.57-0.04-1.137-0.087-1.71-0.115c-1.239-0.059-2.48-0.094-3.726-0.094c-0.93,0-1.856,0.021-2.781,0.054
	c-0.236,0.008-0.47,0.019-0.707,0.03c-0.748,0.032-1.496,0.075-2.24,0.129c-0.13,0.009-0.262,0.012-0.391,0.022
	c-0.071,0.005-0.141,0.014-0.212,0.02c-1.885,0.149-3.754,0.366-5.609,0.647c-0.102,0.015-0.205,0.032-0.308,0.049
	c-0.897,0.139-1.79,0.293-2.679,0.463c-0.036,0.007-0.072,0.013-0.108,0.02c-15.127,2.91-29.005,10.19-40.071,21.074
	c-16.986-23.785-43.861-40.04-74.565-42.723c-0.005,0-0.01-0.001-0.016-0.001c-1.431-0.125-2.869-0.222-4.316-0.288
	c-0.152-0.007-0.304-0.011-0.456-0.017c-1.4-0.057-2.805-0.093-4.22-0.093c-1.195,0-2.385,0.028-3.57,0.069
	c-0.275,0.009-0.548,0.019-0.822,0.031c-1.184,0.05-2.365,0.114-3.539,0.204c-0.014,0.001-0.028,0.001-0.043,0.002
	c-0.066,0.005-0.131,0.013-0.196,0.019c-1.055,0.083-2.105,0.187-3.15,0.302c-0.355,0.039-0.71,0.079-1.065,0.122
	c-0.93,0.113-1.855,0.235-2.777,0.372c-0.501,0.074-1.001,0.156-1.5,0.237c-0.668,0.11-1.334,0.223-1.998,0.346
	c-0.58,0.106-1.158,0.217-1.734,0.334c-0.374,0.076-0.746,0.157-1.119,0.237c-1.323,0.282-2.639,0.589-3.948,0.923
	c-0.073,0.018-0.147,0.036-0.22,0.056c-14.165,3.644-27.406,10.287-38.953,19.658c-3.634,2.949-7.019,6.131-10.155,9.513
	c-3.156,3.36-6.091,6.929-8.777,10.688c-14.647-14.403-34.226-22.498-55.111-22.498c-1.208,0-2.424,0.037-3.641,0.092
	c-0.367,0.017-0.731,0.042-1.096,0.063c-0.46,0.027-0.923,0.045-1.381,0.079c-0.443,0.034-0.883,0.085-1.324,0.127
	c-0.324,0.03-0.649,0.059-0.972,0.093c-2.467,0.262-4.908,0.639-7.319,1.126c-0.107,0.022-0.215,0.046-0.322,0.068
	c-1.195,0.247-2.384,0.522-3.564,0.824c-0.022,0.006-0.045,0.011-0.066,0.016c-10.877,2.797-21.045,7.897-29.913,15.094
	c-2.13,1.73-4.148,3.568-6.055,5.501c-14.268,14.262-23.105,33.956-23.105,55.677v51.37c0,13.204,3.282,25.649,9.048,36.59
	c-12.402,5.53-23.405,14.241-31.6,25.149C5.536,275.728,0,292.338,0,309.822v73.459h41.395v-15.208H15.208v-58.251
	c0-26.926,16.215-50.526,40.861-60.271c6.585,8.138,14.654,14.794,23.666,19.691c0.09,0.049,0.181,0.095,0.272,0.144
	c0.931,0.501,1.871,0.983,2.821,1.447c0.205,0.1,0.408,0.202,0.613,0.3c0.853,0.407,1.714,0.793,2.581,1.169
	c0.382,0.166,0.764,0.333,1.15,0.493c0.804,0.334,1.614,0.653,2.429,0.959c0.482,0.181,0.965,0.357,1.451,0.529
	c0.657,0.233,1.317,0.456,1.981,0.671c0.636,0.207,1.274,0.404,1.916,0.594c0.522,0.155,1.047,0.303,1.573,0.448
	c0.739,0.203,1.481,0.395,2.229,0.577c0.586,0.143,1.174,0.279,1.764,0.408c0.489,0.106,0.975,0.215,1.467,0.312
	c0.887,0.176,1.779,0.333,2.675,0.479c0.409,0.066,0.817,0.132,1.228,0.192c0.989,0.145,1.98,0.272,2.977,0.379
	c0.311,0.033,0.624,0.063,0.936,0.093c1.095,0.105,2.194,0.193,3.297,0.251c0.179,0.009,0.36,0.015,0.539,0.023
	c1.226,0.058,2.456,0.093,3.69,0.093c1.165,0,2.326-0.031,3.485-0.082c0.359-0.015,0.715-0.042,1.073-0.063
	c0.811-0.047,1.621-0.101,2.428-0.173c0.396-0.034,0.792-0.075,1.186-0.116c0.798-0.082,1.594-0.177,2.387-0.284
	c0.357-0.048,0.715-0.093,1.071-0.146c0.956-0.142,1.906-0.302,2.854-0.478c0.176-0.032,0.354-0.06,0.529-0.093
	c1.173-0.226,2.34-0.48,3.499-0.758c0.068-0.016,0.135-0.035,0.203-0.052c1.065-0.26,2.122-0.543,3.173-0.847
	c0.226-0.065,0.45-0.135,0.675-0.203c0.921-0.275,1.834-0.566,2.744-0.873c0.218-0.074,0.436-0.148,0.653-0.224
	c0.998-0.348,1.988-0.715,2.971-1.103c0.092-0.037,0.186-0.07,0.278-0.107c3.385-1.352,6.673-2.944,9.847-4.76
	c0.057-0.032,0.115-0.066,0.171-0.099c1.034-0.595,2.055-1.214,3.064-1.857c0.011-0.007,0.023-0.014,0.034-0.021
	c1.162-0.742,2.313-1.506,3.439-2.311c1.036,2.209,2.152,4.379,3.343,6.506c-0.482,0.2-0.956,0.417-1.434,0.624
	c-0.424,0.184-0.85,0.363-1.271,0.553c-0.861,0.386-1.713,0.789-2.563,1.198c-0.301,0.145-0.605,0.282-0.904,0.43
	c-1.144,0.565-2.277,1.149-3.4,1.755c-0.244,0.132-0.484,0.274-0.728,0.408c-0.876,0.482-1.747,0.971-2.608,1.478
	c-0.387,0.228-0.771,0.464-1.155,0.698c-0.715,0.432-1.426,0.87-2.129,1.319c-0.412,0.263-0.819,0.529-1.227,0.798
	c-0.676,0.445-1.347,0.897-2.014,1.358c-0.398,0.276-0.797,0.552-1.192,0.832c-0.69,0.492-1.373,0.995-2.051,1.503
	c-0.35,0.262-0.702,0.518-1.048,0.785c-0.837,0.643-1.663,1.301-2.48,1.968c-0.173,0.142-0.352,0.277-0.524,0.42
	c-0.985,0.814-1.955,1.649-2.91,2.498c-0.27,0.239-0.531,0.488-0.798,0.73c-0.681,0.618-1.358,1.242-2.023,1.878
	c-0.34,0.325-0.673,0.657-1.009,0.988c-0.583,0.573-1.16,1.15-1.729,1.737c-0.347,0.357-0.69,0.718-1.032,1.08
	c-0.554,0.586-1.098,1.18-1.637,1.779c-0.325,0.362-0.652,0.723-0.973,1.089c-0.568,0.649-1.123,1.308-1.675,1.972
	c-0.271,0.326-0.546,0.646-0.813,0.974c-0.784,0.966-1.553,1.945-2.303,2.939c-0.02,0.027-0.043,0.053-0.062,0.079
	c-12.8,17.039-19.943,37.137-20.787,58.361c-0.056,1.415-0.084,2.835-0.084,4.259v0.925H61.673v15.208h40.192V462.7h41.395v-15.208
	h-26.187V383.28v-16.133c0-19.472,6.162-37.966,17.822-53.487c0.674-0.897,1.368-1.779,2.074-2.649
	c0.23-0.283,0.47-0.558,0.704-0.838c0.485-0.581,0.97-1.161,1.469-1.729c0.288-0.327,0.584-0.647,0.876-0.97
	c0.46-0.509,0.922-1.017,1.394-1.515c0.318-0.336,0.642-0.665,0.965-0.996c0.461-0.472,0.926-0.942,1.397-1.403
	c0.339-0.332,0.681-0.658,1.025-0.984c0.473-0.449,0.951-0.893,1.434-1.331c0.351-0.318,0.703-0.635,1.059-0.947
	c0.493-0.433,0.991-0.86,1.492-1.283c0.357-0.301,0.715-0.602,1.077-0.897c0.521-0.425,1.05-0.841,1.581-1.254
	c0.353-0.275,0.704-0.553,1.06-0.822c0.572-0.432,1.152-0.852,1.734-1.269c0.326-0.235,0.65-0.476,0.979-0.707
	c0.702-0.491,1.413-0.965,2.128-1.436c0.219-0.144,0.433-0.295,0.653-0.437c0.941-0.607,1.892-1.196,2.854-1.768
	c0.223-0.133,0.452-0.257,0.676-0.386c0.741-0.431,1.484-0.858,2.237-1.268c0.353-0.192,0.711-0.373,1.066-0.561
	c0.633-0.334,1.266-0.666,1.906-0.984c0.4-0.199,0.805-0.388,1.209-0.582c0.605-0.289,1.211-0.576,1.822-0.852
	c0.425-0.192,0.853-0.376,1.28-0.561c0.6-0.26,1.202-0.514,1.809-0.759c0.438-0.177,0.878-0.351,1.319-0.522
	c0.29-0.113,0.582-0.217,0.873-0.326c8.243,10.566,18.375,19.283,29.73,25.827c0.094,0.055,0.189,0.109,0.283,0.164
	c0.529,0.303,1.062,0.6,1.596,0.893c0.331,0.181,0.662,0.361,0.994,0.539c0.378,0.203,0.757,0.404,1.139,0.601
	c0.571,0.297,1.145,0.587,1.722,0.873c0.179,0.089,0.358,0.179,0.537,0.268c10.197,4.989,21.337,8.333,33.075,9.693
	c0.066,0.008,0.132,0.015,0.197,0.022c0.843,0.096,1.688,0.181,2.537,0.257c0.162,0.014,0.324,0.029,0.487,0.044
	c0.754,0.063,1.511,0.118,2.27,0.164c0.223,0.014,0.445,0.03,0.668,0.043c0.724,0.04,1.451,0.07,2.179,0.094
	c0.234,0.008,0.467,0.02,0.703,0.026c0.944,0.025,1.89,0.041,2.84,0.041s1.896-0.015,2.84-0.041
	c0.234-0.006,0.468-0.018,0.703-0.026c0.728-0.024,1.455-0.055,2.179-0.094c0.223-0.012,0.445-0.028,0.668-0.043
	c0.758-0.047,1.516-0.1,2.27-0.164c0.162-0.014,0.324-0.028,0.487-0.044c0.849-0.075,1.694-0.161,2.537-0.257
	c0.066-0.007,0.132-0.015,0.197-0.022c11.738-1.36,22.878-4.703,33.075-9.693c0.179-0.088,0.358-0.178,0.537-0.268
	c0.577-0.286,1.151-0.576,1.722-0.873c0.381-0.198,0.759-0.4,1.139-0.601c0.333-0.178,0.664-0.358,0.994-0.539
	c0.534-0.293,1.067-0.59,1.596-0.893c0.094-0.055,0.189-0.109,0.283-0.164c11.354-6.543,21.487-15.261,29.73-25.827
	c0.291,0.109,0.583,0.214,0.873,0.326c0.441,0.17,0.88,0.344,1.319,0.522c0.606,0.245,1.209,0.501,1.809,0.759
	c0.428,0.185,0.856,0.369,1.28,0.561c0.611,0.276,1.218,0.563,1.822,0.852c0.404,0.193,0.808,0.382,1.209,0.582
	c0.641,0.318,1.273,0.651,1.906,0.984c0.355,0.188,0.713,0.368,1.066,0.561c0.752,0.41,1.495,0.836,2.237,1.268
	c0.224,0.131,0.453,0.255,0.676,0.386c0.962,0.572,1.913,1.161,2.854,1.768c0.22,0.142,0.434,0.293,0.653,0.437
	c0.715,0.47,1.427,0.945,2.128,1.436c0.33,0.23,0.653,0.471,0.979,0.707c0.582,0.419,1.162,0.837,1.734,1.269
	c0.357,0.27,0.707,0.548,1.06,0.822c0.53,0.414,1.06,0.829,1.581,1.254c0.362,0.295,0.719,0.596,1.077,0.897
	c0.502,0.423,1.001,0.849,1.492,1.283c0.356,0.312,0.708,0.629,1.059,0.947c0.483,0.438,0.96,0.883,1.434,1.331
	c0.344,0.326,0.686,0.653,1.025,0.984c0.471,0.461,0.936,0.932,1.397,1.403c0.323,0.331,0.648,0.66,0.965,0.996
	c0.471,0.498,0.934,1.006,1.394,1.515c0.292,0.323,0.589,0.643,0.876,0.97c0.499,0.568,0.984,1.148,1.469,1.729
	c0.233,0.28,0.473,0.555,0.704,0.838c0.708,0.87,1.4,1.752,2.074,2.649c11.66,15.521,17.822,34.015,17.822,53.487v16.133v33.796
	H193.953v15.208h200.973v15.208h-231.39V462.7h246.598V383.28h40.192v-15.208h-40.192v-0.925c0-1.424-0.028-2.845-0.084-4.259
	c-0.843-21.226-7.986-41.323-20.787-58.361c-0.02-0.027-0.043-0.053-0.062-0.079c-0.749-0.995-1.518-1.973-2.303-2.939
	c-0.267-0.329-0.542-0.649-0.813-0.974c-0.552-0.663-1.107-1.323-1.675-1.972c-0.32-0.366-0.647-0.727-0.973-1.089
	c-0.539-0.599-1.085-1.193-1.637-1.779c-0.342-0.362-0.685-0.723-1.032-1.08c-0.569-0.586-1.147-1.164-1.729-1.737
	c-0.336-0.33-0.668-0.662-1.009-0.988c-0.665-0.637-1.341-1.259-2.023-1.878c-0.267-0.242-0.528-0.491-0.798-0.73
	c-0.955-0.85-1.924-1.684-2.91-2.498c-0.172-0.143-0.351-0.278-0.524-0.42c-0.818-0.667-1.644-1.325-2.48-1.968
	c-0.347-0.266-0.699-0.523-1.048-0.785c-0.678-0.508-1.361-1.011-2.051-1.503c-0.395-0.281-0.794-0.557-1.192-0.832
	c-0.666-0.46-1.337-0.914-2.014-1.358c-0.408-0.268-0.816-0.535-1.227-0.798c-0.704-0.449-1.414-0.886-2.129-1.319
	c-0.385-0.233-0.767-0.469-1.155-0.698c-0.862-0.507-1.733-0.997-2.608-1.478c-0.243-0.134-0.483-0.275-0.728-0.408
	c-1.122-0.606-2.256-1.19-3.4-1.755c-0.299-0.148-0.603-0.285-0.904-0.43c-0.85-0.41-1.702-0.812-2.563-1.198
	c-0.422-0.19-0.847-0.369-1.271-0.553c-0.479-0.207-0.953-0.424-1.434-0.624c1.191-2.127,2.307-4.297,3.343-6.506
	c1.125,0.806,2.276,1.567,3.438,2.311c0.012,0.008,0.024,0.015,0.037,0.023c1.007,0.643,2.027,1.26,3.06,1.855
	c0.059,0.033,0.118,0.068,0.176,0.101c3.172,1.816,6.458,3.408,9.843,4.759c0.094,0.038,0.19,0.072,0.284,0.109
	c0.98,0.387,1.968,0.753,2.963,1.1c0.219,0.077,0.439,0.151,0.659,0.226c0.906,0.307,1.819,0.597,2.736,0.871
	c0.227,0.068,0.453,0.138,0.68,0.204c1.048,0.302,2.103,0.586,3.164,0.845c0.071,0.017,0.14,0.037,0.211,0.055
	c1.158,0.279,2.324,0.531,3.496,0.757c0.178,0.034,0.358,0.062,0.536,0.094c0.945,0.175,1.894,0.336,2.847,0.477
	c0.357,0.053,0.716,0.098,1.074,0.147c0.792,0.106,1.587,0.202,2.384,0.284c0.395,0.041,0.791,0.081,1.188,0.116
	c0.807,0.071,1.616,0.127,2.427,0.172c0.358,0.02,0.715,0.047,1.074,0.063c1.158,0.051,2.319,0.082,3.484,0.082
	c1.234,0,2.464-0.036,3.69-0.093c0.179-0.008,0.36-0.013,0.539-0.023c1.104-0.06,2.202-0.146,3.298-0.251
	c0.312-0.029,0.624-0.06,0.935-0.093c0.997-0.107,1.99-0.234,2.979-0.379c0.41-0.06,0.817-0.126,1.225-0.192
	c0.898-0.147,1.794-0.303,2.684-0.481c0.488-0.096,0.971-0.205,1.457-0.31c0.593-0.13,1.183-0.267,1.772-0.41
	c0.743-0.18,1.48-0.371,2.215-0.573c0.53-0.146,1.06-0.295,1.587-0.452c0.633-0.188,1.262-0.381,1.888-0.585
	c0.672-0.218,1.342-0.445,2.009-0.681c0.483-0.171,0.964-0.346,1.443-0.526c0.818-0.308,1.63-0.628,2.437-0.962
	c0.382-0.159,0.761-0.324,1.141-0.489c0.874-0.379,1.743-0.768,2.603-1.178c0.198-0.094,0.392-0.193,0.589-0.289
	c0.957-0.466,1.903-0.952,2.84-1.457c0.085-0.046,0.171-0.09,0.257-0.136c9.014-4.897,17.084-11.553,23.67-19.694
	c24.646,9.744,40.861,33.346,40.861,60.271v58.251h-26.187v15.208h41.395v-73.459C512,292.338,506.464,275.728,495.99,261.785z
	 M424.688,256.047c-0.755,0.407-1.518,0.799-2.29,1.175c-0.246,0.12-0.495,0.231-0.742,0.348c-0.529,0.249-1.064,0.49-1.601,0.725
	c-0.341,0.149-0.681,0.3-1.025,0.443c-0.649,0.271-1.305,0.527-1.965,0.776c-0.43,0.162-0.862,0.317-1.295,0.47
	c-0.382,0.135-0.768,0.264-1.153,0.391c-0.7,0.231-1.402,0.451-2.11,0.658c-0.371,0.108-0.742,0.216-1.115,0.317
	c-0.457,0.125-0.915,0.248-1.375,0.363c-0.674,0.167-1.352,0.324-2.034,0.47c-0.413,0.088-0.827,0.169-1.243,0.249
	c-0.559,0.107-1.12,0.209-1.685,0.302c-0.43,0.071-0.86,0.139-1.292,0.202c-0.689,0.099-1.382,0.188-2.077,0.265
	c-0.284,0.031-0.568,0.064-0.854,0.091c-0.874,0.084-1.753,0.153-2.638,0.201c-0.207,0.011-0.414,0.019-0.62,0.028
	c-0.961,0.044-1.925,0.074-2.897,0.074s-1.941-0.025-2.906-0.069c-0.336-0.015-0.67-0.045-1.005-0.065
	c-0.627-0.039-1.252-0.077-1.875-0.134c-0.408-0.036-0.813-0.086-1.219-0.131c-0.542-0.06-1.085-0.12-1.624-0.193
	c-0.446-0.061-0.889-0.132-1.333-0.202c-0.492-0.077-0.983-0.157-1.473-0.246c-0.472-0.086-0.943-0.179-1.412-0.276
	c-0.449-0.092-0.896-0.189-1.342-0.291c-0.498-0.114-0.995-0.232-1.489-0.358c-0.404-0.102-0.804-0.211-1.206-0.321
	c-0.527-0.145-1.053-0.292-1.577-0.451c-0.345-0.104-0.686-0.217-1.028-0.327c-0.57-0.184-1.14-0.368-1.704-0.568
	c-0.247-0.087-0.492-0.184-0.738-0.274c-4.011-1.476-7.873-3.351-11.523-5.62c-0.017-0.011-0.034-0.021-0.053-0.031
	c-0.717-0.446-1.423-0.91-2.124-1.386c-0.069-0.047-0.138-0.092-0.206-0.139c-0.679-0.466-1.35-0.947-2.014-1.441
	c-0.079-0.059-0.159-0.118-0.238-0.177c-0.661-0.497-1.313-1.007-1.957-1.531c-0.032-0.026-0.064-0.053-0.096-0.079
	c0.018-0.062,0.033-0.125,0.051-0.187c0.313-1.079,0.61-2.165,0.888-3.258c0.021-0.083,0.041-0.167,0.061-0.25
	c0.252-1.001,0.488-2.009,0.71-3.02c0.044-0.201,0.088-0.4,0.131-0.601c0.462-2.166,0.856-4.357,1.178-6.57
	c0.035-0.242,0.069-0.485,0.102-0.728c0.129-0.932,0.246-1.869,0.35-2.808c0.02-0.179,0.043-0.359,0.062-0.539
	c0.114-1.085,0.21-2.176,0.29-3.271c0.017-0.236,0.029-0.472,0.045-0.709c0.058-0.872,0.103-1.747,0.139-2.625
	c0.012-0.301,0.025-0.601,0.034-0.902c0.034-1.09,0.058-2.183,0.058-3.281v-68.605c0-0.957-0.016-1.911-0.042-2.862
	c-0.007-0.237-0.019-0.473-0.027-0.711c-0.025-0.735-0.056-1.468-0.096-2.198c-0.013-0.231-0.029-0.462-0.045-0.693
	c-0.048-0.758-0.102-1.516-0.166-2.27c-0.015-0.182-0.032-0.365-0.049-0.547c-0.076-0.84-0.161-1.676-0.258-2.51
	c-0.011-0.095-0.021-0.191-0.032-0.286c-0.05-0.424-0.098-0.848-0.153-1.269c3.362-2.213,6.576-4.632,9.6-7.27
	c16.204,14.198,36.711,21.935,58.513,21.935c11.252,0,21.9-2.111,32.303-6.405c0.017,0.608,0.047,1.215,0.047,1.827v51.37
	c0,23.993-13.368,44.917-33.044,55.731C425.021,255.868,424.855,255.958,424.688,256.047z M297.311,297.566
	c-1.052,0.567-2.117,1.114-3.194,1.638c-0.317,0.154-0.64,0.299-0.96,0.449c-0.753,0.355-1.513,0.698-2.277,1.031
	c-0.453,0.198-0.905,0.4-1.363,0.589c-0.903,0.376-1.817,0.734-2.735,1.081c-0.58,0.218-1.163,0.428-1.747,0.635
	c-0.545,0.193-1.096,0.376-1.648,0.559c-0.939,0.31-1.883,0.605-2.833,0.883c-0.523,0.153-1.047,0.304-1.575,0.448
	c-0.623,0.17-1.246,0.339-1.873,0.495c-0.931,0.231-1.867,0.448-2.808,0.65c-0.564,0.121-1.13,0.231-1.697,0.341
	c-0.776,0.15-1.554,0.29-2.337,0.419c-0.584,0.096-1.169,0.189-1.756,0.274c-0.952,0.137-1.909,0.26-2.87,0.366
	c-0.388,0.044-0.776,0.087-1.165,0.125c-1.204,0.117-2.415,0.211-3.634,0.277c-0.284,0.016-0.568,0.026-0.852,0.04
	c-1.322,0.06-2.648,0.101-3.986,0.101c-1.337,0-2.663-0.042-3.986-0.101c-0.284-0.013-0.569-0.023-0.852-0.04
	c-1.218-0.067-2.429-0.161-3.634-0.277c-0.389-0.038-0.777-0.082-1.165-0.125c-0.962-0.105-1.918-0.229-2.87-0.366
	c-0.587-0.085-1.172-0.177-1.756-0.274c-0.783-0.129-1.561-0.269-2.337-0.419c-0.567-0.109-1.134-0.22-1.697-0.341
	c-0.942-0.202-1.879-0.419-2.808-0.65c-0.627-0.156-1.25-0.324-1.873-0.495c-0.527-0.144-1.051-0.295-1.575-0.448
	c-0.95-0.279-1.894-0.573-2.833-0.883c-0.551-0.182-1.101-0.366-1.648-0.559c-0.584-0.206-1.167-0.416-1.747-0.635
	c-0.919-0.347-1.832-0.704-2.735-1.081c-0.457-0.19-0.908-0.391-1.363-0.589c-0.764-0.334-1.525-0.676-2.277-1.031
	c-0.319-0.15-0.642-0.295-0.96-0.449c-1.078-0.524-2.141-1.072-3.194-1.638c-0.212-0.114-0.424-0.229-0.635-0.345
	c-18.32-10.061-32.661-26.493-40.026-46.295c-0.089-0.241-0.178-0.484-0.267-0.726c-0.335-0.926-0.646-1.863-0.95-2.801
	c-0.132-0.41-0.272-0.816-0.397-1.227c-0.324-1.055-0.624-2.121-0.908-3.193c-0.062-0.233-0.134-0.463-0.194-0.697
	c-0.33-1.282-0.626-2.576-0.897-3.879c-0.088-0.423-0.16-0.85-0.242-1.274c-0.174-0.902-0.341-1.808-0.488-2.72
	c-0.081-0.505-0.151-1.011-0.223-1.518c-0.122-0.858-0.232-1.719-0.33-2.584c-0.057-0.509-0.112-1.017-0.159-1.527
	c-0.087-0.923-0.154-1.85-0.212-2.781c-0.027-0.443-0.062-0.884-0.083-1.328c-0.064-1.37-0.104-2.745-0.104-4.13v-68.022
	c18.991-4.379,36.093-13.484,50.977-27.165c21.425,19.493,48.883,30.142,78.121,30.142c15.963,0,30.941-3.176,45.517-9.654
	c0.026,0.382,0.066,0.76,0.087,1.144c0.018,0.332,0.033,0.663,0.049,0.995c0.059,1.312,0.1,2.628,0.1,3.954v68.605
	c0,1.385-0.041,2.761-0.104,4.131c-0.02,0.443-0.056,0.885-0.083,1.327c-0.058,0.932-0.126,1.859-0.212,2.783
	c-0.048,0.509-0.102,1.017-0.159,1.525c-0.097,0.867-0.208,1.73-0.33,2.588c-0.072,0.505-0.142,1.01-0.222,1.513
	c-0.146,0.915-0.314,1.823-0.489,2.728c-0.081,0.422-0.153,0.847-0.24,1.267c-0.272,1.305-0.569,2.6-0.898,3.883
	c-0.059,0.228-0.13,0.454-0.19,0.681c-0.286,1.077-0.587,2.146-0.913,3.207c-0.126,0.41-0.265,0.816-0.396,1.224
	c-0.304,0.94-0.615,1.878-0.951,2.804c-0.087,0.242-0.176,0.485-0.267,0.726c-7.365,19.802-21.706,36.234-40.026,46.295
	C297.734,297.337,297.523,297.451,297.311,297.566z M157.369,249.369c-0.644,0.524-1.296,1.034-1.957,1.531
	c-0.079,0.06-0.159,0.119-0.238,0.177c-0.663,0.494-1.334,0.975-2.014,1.441c-0.068,0.047-0.138,0.092-0.206,0.139
	c-0.701,0.477-1.408,0.94-2.125,1.387c-0.016,0.01-0.032,0.019-0.049,0.029c-3.653,2.27-7.517,4.147-11.532,5.624
	c-0.243,0.089-0.486,0.185-0.73,0.271c-0.567,0.201-1.139,0.385-1.71,0.57c-0.341,0.109-0.68,0.221-1.022,0.325
	c-0.524,0.159-1.052,0.306-1.581,0.452c-0.399,0.109-0.8,0.218-1.201,0.32c-0.496,0.126-0.994,0.244-1.492,0.359
	c-0.445,0.101-0.891,0.198-1.339,0.29c-0.47,0.096-0.942,0.191-1.415,0.277c-0.489,0.089-0.979,0.168-1.47,0.246
	c-0.444,0.07-0.888,0.141-1.335,0.202c-0.538,0.073-1.081,0.133-1.622,0.193c-0.407,0.045-0.813,0.094-1.221,0.132
	c-0.623,0.056-1.248,0.095-1.874,0.133c-0.336,0.02-0.669,0.05-1.006,0.065c-0.965,0.044-1.933,0.069-2.906,0.069
	c-0.971,0-1.936-0.03-2.897-0.074c-0.207-0.009-0.414-0.017-0.62-0.028c-0.884-0.049-1.763-0.117-2.638-0.201
	c-0.285-0.027-0.569-0.06-0.853-0.091c-0.696-0.077-1.388-0.165-2.077-0.265c-0.432-0.063-0.863-0.131-1.293-0.202
	c-0.564-0.093-1.125-0.194-1.684-0.301c-0.415-0.08-0.83-0.161-1.243-0.249c-0.681-0.146-1.36-0.303-2.033-0.47
	c-0.461-0.115-0.92-0.239-1.377-0.364c-0.372-0.101-0.742-0.208-1.112-0.316c-0.71-0.208-1.414-0.428-2.116-0.66
	c-0.384-0.127-0.768-0.254-1.148-0.389c-0.434-0.153-0.868-0.309-1.298-0.471c-0.659-0.248-1.314-0.505-1.963-0.776
	c-0.345-0.143-0.685-0.295-1.027-0.444c-0.535-0.234-1.068-0.475-1.595-0.722c-0.249-0.117-0.501-0.23-0.749-0.351
	c-0.771-0.375-1.532-0.767-2.285-1.172c-0.168-0.09-0.337-0.182-0.505-0.274C67.138,244.965,53.77,224.042,53.77,200.05v-49.363
	c13.359-3.306,25.517-9.784,36.271-19.339c16.2,14.182,36.696,21.91,58.485,21.91c1.612,0,3.226-0.06,4.839-0.147v67.433
	c0,1.098,0.023,2.191,0.058,3.281c0.009,0.301,0.022,0.601,0.034,0.901c0.035,0.878,0.082,1.754,0.139,2.627
	c0.015,0.236,0.027,0.471,0.045,0.708c0.08,1.096,0.176,2.186,0.29,3.272c0.019,0.178,0.042,0.357,0.062,0.535
	c0.103,0.942,0.221,1.879,0.351,2.813c0.033,0.241,0.067,0.484,0.101,0.725c0.322,2.214,0.716,4.405,1.178,6.572
	c0.043,0.2,0.087,0.399,0.131,0.599c0.222,1.013,0.457,2.021,0.71,3.021c0.021,0.083,0.041,0.167,0.061,0.25
	c0.278,1.093,0.576,2.179,0.888,3.258c0.018,0.062,0.032,0.125,0.051,0.187C157.434,249.316,157.402,249.342,157.369,249.369z
	 M104.474,86.431c0.03-0.006,0.061-0.013,0.091-0.019c1.967-0.403,3.967-0.709,5.995-0.924c0.238-0.025,0.477-0.047,0.716-0.069
	c0.742-0.07,1.489-0.126,2.239-0.17c0.288-0.017,0.575-0.036,0.864-0.05c0.977-0.045,1.958-0.075,2.946-0.075
	c18.048,0,34.9,7.5,46.944,20.736c-0.152,0.302-0.288,0.609-0.437,0.912c-0.338,0.688-0.672,1.378-0.994,2.073
	c-0.323,0.697-0.635,1.398-0.942,2.101c-0.105,0.241-0.209,0.484-0.311,0.726c-2.67,6.234-4.697,12.688-6.067,19.328
	c-0.061,0.292-0.118,0.586-0.176,0.879c-0.2,1.014-0.387,2.032-0.557,3.054c-0.115,0.685-0.224,1.373-0.325,2.063
	c-0.04,0.275-0.092,0.546-0.13,0.821c-1.93,0.15-3.868,0.226-5.8,0.226c-20.171,0-39.008-7.989-53.04-22.498l-5.466-5.651
	l-5.466,5.651c-8.354,8.638-17.8,14.834-28.181,18.503c2.588-11.959,8.259-22.524,16.522-30.757
	C81.441,94.925,92.325,88.936,104.474,86.431z M193.505,90.883c0.315-0.326,0.632-0.653,0.952-0.975
	c11.806-11.714,26.922-20.095,43.808-23.588c0.073-0.015,0.146-0.031,0.219-0.047c2.685-0.549,5.417-0.966,8.185-1.261
	c0.352-0.038,0.705-0.068,1.057-0.101c0.998-0.094,2-0.169,3.007-0.229c0.408-0.024,0.815-0.052,1.224-0.071
	c1.341-0.062,2.688-0.102,4.043-0.102c1.387,0,2.764,0.041,4.135,0.104c0.624,0.029,1.243,0.081,1.865,0.124
	c0.706,0.048,1.41,0.096,2.111,0.161c0.851,0.08,1.697,0.177,2.544,0.283c0.411,0.05,0.82,0.1,1.229,0.156
	c1.052,0.146,2.102,0.306,3.146,0.491c0.107,0.018,0.215,0.039,0.322,0.058c14.879,2.686,28.851,9.244,40.393,19.122
	c13.814,11.822,23.646,27.874,28.064,45.655c-13.508,6.47-27.348,9.625-42.136,9.625c-27.637,0-53.444-10.947-72.669-30.824
	l-5.466-5.651l-5.466,5.651c-12.537,12.963-27.006,21.921-43.122,26.72c2.876-16.839,10.202-31.943,21.283-43.967
	C192.653,91.768,193.075,91.322,193.505,90.883z M349.695,103.813c0.276-0.278,0.556-0.551,0.835-0.822
	c0.46-0.446,0.927-0.885,1.399-1.316c0.258-0.235,0.512-0.475,0.773-0.705c0.662-0.586,1.336-1.156,2.02-1.711
	c0.388-0.314,0.785-0.616,1.179-0.921c0.332-0.257,0.663-0.511,0.999-0.76c0.467-0.347,0.938-0.687,1.412-1.02
	c0.245-0.172,0.494-0.338,0.742-0.506c1.116-0.758,2.25-1.484,3.406-2.167c0.042-0.024,0.081-0.051,0.123-0.075
	c0.537-0.316,1.083-0.616,1.629-0.917c0.277-0.152,0.555-0.302,0.833-0.449c0.524-0.277,1.05-0.551,1.582-0.812
	c0.313-0.154,0.632-0.3,0.948-0.449c0.841-0.397,1.689-0.775,2.546-1.135c0.429-0.179,0.857-0.361,1.289-0.531
	c0.447-0.176,0.897-0.343,1.348-0.509c0.487-0.178,0.976-0.35,1.467-0.517c0.404-0.137,0.806-0.277,1.213-0.406
	c0.846-0.268,1.697-0.52,2.555-0.752c0.309-0.084,0.623-0.156,0.934-0.235c0.649-0.165,1.301-0.322,1.956-0.467
	c0.349-0.077,0.699-0.151,1.049-0.223c0.731-0.148,1.465-0.283,2.202-0.406c0.229-0.039,0.455-0.083,0.685-0.119
	c0.949-0.147,1.904-0.27,2.864-0.375c0.284-0.031,0.569-0.055,0.853-0.082c0.734-0.07,1.471-0.128,2.211-0.172
	c0.309-0.019,0.618-0.039,0.928-0.054c0.997-0.047,1.996-0.078,3.002-0.078c1.04,0,2.074,0.029,3.103,0.079
	c0.236,0.011,0.469,0.031,0.705,0.046c0.819,0.049,1.635,0.107,2.447,0.187c0.211,0.02,0.421,0.046,0.631,0.069
	c0.858,0.093,1.71,0.2,2.558,0.325c0.148,0.022,0.295,0.045,0.443,0.068c0.925,0.145,1.843,0.308,2.755,0.494
	c0.081,0.016,0.163,0.031,0.244,0.049c0.972,0.201,1.937,0.424,2.892,0.669c0.04,0.01,0.08,0.019,0.12,0.029
	c0.92,0.237,1.83,0.501,2.733,0.778c0.099,0.03,0.2,0.057,0.298,0.087c0.386,0.121,0.763,0.261,1.147,0.388
	c7.364,2.494,14.206,6.383,20.281,11.609c9.584,8.245,16.523,19.349,19.898,31.698c-9.42,4.315-18.779,6.346-29.05,6.346
	c-20.171,0-39.008-7.989-53.039-22.498l-5.466-5.651l-5.466,5.651c-2.37,2.451-4.909,4.734-7.597,6.835
	c-0.083-0.277-0.181-0.547-0.267-0.823c-0.126-0.405-0.26-0.806-0.39-1.209c-0.116-0.357-0.229-0.715-0.349-1.071
	c-0.239-0.713-0.485-1.423-0.739-2.13c-0.193-0.535-0.395-1.068-0.597-1.6c-0.354-0.933-0.719-1.86-1.1-2.783
	c-0.289-0.702-0.583-1.4-0.888-2.096c-0.217-0.493-0.436-0.983-0.661-1.473c-0.448-0.979-0.909-1.952-1.389-2.917
	c-0.068-0.137-0.128-0.277-0.197-0.413c0.171-0.189,0.35-0.368,0.523-0.555C348.731,104.806,349.209,104.304,349.695,103.813z"/>
<g>
</g>
<g>
</g>
<g>
</g>
<g>
</g>
<g>
</g>
<g>
</g>
<g>
</g>
<g>
</g>
<g>
</g>
<g>
</g>
<g>
</g>
<g>
</g>
<g>
</g>
<g>
</g>
<g>
</g>
</svg>
