<svg width="251" height="251" viewBox="0 0 251 251" fill="none" xmlns="http://www.w3.org/2000/svg">
<path d="M219.302 0H63.6463C63.046 0 62.4708 0.106152 61.9337 0.292833C61.3962 0.106152 60.821 0 60.2201 0H35.3518C32.4642 0 30.1226 2.3411 30.1226 5.22917V196.878C30.1226 197.039 30.1331 197.199 30.1472 197.358C27.9635 201.195 26.7064 205.625 26.6965 210.345L26.47 222.082C26.4695 222.115 26.469 222.149 26.469 222.183C26.469 229.149 29.2504 236.308 34.101 241.824C39.2297 247.655 46.1725 251 53.1498 251H219.301C222.189 251 224.53 248.659 224.53 245.771V189.171V182.1V5.22917C224.531 2.3411 222.189 0 219.302 0ZM65.888 10.4583H214.073V182.1V183.941H99.031H65.888V10.4583ZM54.991 10.4583V183.942H53.1498C50.8228 183.942 48.5659 184.247 46.4141 184.814C44.3648 185.138 42.3876 185.853 40.5815 186.738V10.4583H54.991ZM214.073 240.542H53.1503C44.9651 240.542 37.2243 231.944 36.942 222.702H214.073V240.542ZM214.073 212.244H37.1208L37.1548 210.499C37.1553 210.465 37.1558 210.432 37.1558 210.398C37.1558 203.188 41.9505 197.079 48.5173 195.087C52.7011 194.666 59.4922 194.427 60.3059 194.4H63.6468H99.0315H214.073V212.244Z" fill="black"/>
<path d="M196.229 132.574V33.5273C196.229 30.6392 193.888 28.2981 191 28.2981H91.9481C89.0606 28.2981 86.7189 30.6392 86.7189 33.5273V132.574C86.7189 135.463 89.0606 137.804 91.9481 137.804H191C193.888 137.804 196.229 135.463 196.229 132.574ZM185.771 127.345H97.1773V38.7564H185.771V127.345Z" fill="black"/>
<path d="M189.146 160.873C189.146 157.985 186.805 155.644 183.917 155.644H99.0305C96.1424 155.644 93.8013 157.985 93.8013 160.873C93.8013 163.761 96.1424 166.102 99.0305 166.102H183.917C186.805 166.102 189.146 163.761 189.146 160.873Z" fill="black"/>
</svg>
