<svg width="251" height="251" viewBox="0 0 251 251" fill="none" xmlns="http://www.w3.org/2000/svg">
<path d="M209.341 0H75.1951C66.0934 0 58.6889 7.40499 58.6889 16.5062V16.768H58.4271C49.3254 16.768 41.9209 24.173 41.9209 33.2742V33.536H41.6591C32.5575 33.536 25.153 40.9409 25.153 50.0421V234.493C25.153 243.595 32.5579 250.999 41.6591 250.999H175.805C184.907 250.999 192.312 243.594 192.312 234.493V234.231H192.573C201.675 234.231 209.08 226.826 209.08 217.725V217.463H209.341C218.443 217.463 225.848 210.058 225.848 200.957V16.5062C225.848 7.40499 218.443 0 209.341 0ZM184.451 234.494C184.451 239.261 180.572 243.14 175.805 243.14H41.6587C36.8911 243.14 33.0124 239.261 33.0124 234.494V167.159H184.451V234.494H184.451ZM184.451 159.299H33.0124V50.0426C33.0124 45.2751 36.8911 41.3964 41.6587 41.3964H175.805C180.572 41.3964 184.451 45.2751 184.451 50.0426V159.299ZM201.219 217.725C201.219 222.493 197.34 226.372 192.573 226.372H192.311V150.39H201.219V217.725ZM201.219 142.53H192.311V50.0426C192.311 40.9409 184.906 33.5364 175.805 33.5364H49.7809V33.2747C49.7809 28.5071 53.6596 24.6284 58.4271 24.6284H192.573C197.341 24.6284 201.22 28.5071 201.22 33.2747V142.53H201.219ZM217.988 200.957C217.988 205.725 214.109 209.604 209.341 209.604H209.08V133.622H217.988V200.957ZM217.988 125.762H209.08V33.2747C209.08 24.173 201.675 16.7685 192.573 16.7685H66.5488V16.5062C66.5488 11.7387 70.4276 7.85993 75.1951 7.85993H209.341C214.109 7.85993 217.988 11.7387 217.988 16.5062V125.762Z" fill="black"/>
<path d="M116.71 137.024L97.4557 67.7078C95.981 62.3976 91.1022 58.689 85.591 58.689H77.3762C71.8649 58.689 66.9861 62.3976 65.511 67.7073L46.2556 137.024C45.6751 139.116 46.8993 141.282 48.9911 141.863C51.0829 142.444 53.2488 141.219 53.8297 139.128L58.8522 121.046H104.114L109.136 139.128C109.62 140.867 111.2 142.007 112.922 142.007C113.27 142.007 113.624 141.961 113.976 141.863C116.067 141.282 117.292 139.116 116.71 137.024ZM61.0357 113.186L73.0846 69.8109C73.618 67.8907 75.3829 66.5489 77.3762 66.5489H85.591C87.5843 66.5489 89.3491 67.8902 89.882 69.8109L101.931 113.186H61.0357Z" fill="black"/>
<path d="M167.42 134.146C167.276 134.146 167.159 134.029 167.159 133.884V119.212V115.02V96.156C167.159 93.9858 165.399 92.2258 163.228 92.2258C161.058 92.2258 159.298 93.9853 159.298 96.156V97.8219C155.295 94.3407 150.073 92.2258 144.364 92.2258C131.795 92.2258 121.569 102.451 121.569 115.02V119.212C121.569 131.781 131.795 142.007 144.364 142.007C150.226 142.007 155.578 139.781 159.621 136.131C160.599 139.519 163.722 142.007 167.42 142.007C169.59 142.007 171.35 140.247 171.35 138.076C171.35 135.906 169.591 134.146 167.42 134.146ZM159.299 119.212C159.299 127.447 152.599 134.146 144.364 134.146C136.129 134.146 129.43 127.446 129.43 119.212V115.02C129.43 106.785 136.13 100.086 144.364 100.086C152.599 100.086 159.299 106.785 159.299 115.02V119.212Z" fill="black"/>
<path d="M163.228 184.451H54.2347C52.0644 184.451 50.3044 186.211 50.3044 188.381C50.3044 190.552 52.0639 192.312 54.2347 192.312H163.228C165.399 192.312 167.159 190.552 167.159 188.381C167.159 186.211 165.399 184.451 163.228 184.451Z" fill="black"/>
<path d="M121.308 217.988H54.2347C52.0644 217.988 50.3044 219.747 50.3044 221.918C50.3044 224.088 52.0639 225.848 54.2347 225.848H121.308C123.478 225.848 125.238 224.089 125.238 221.918C125.238 219.747 123.478 217.988 121.308 217.988Z" fill="black"/>
<path d="M79.3856 201.219H54.2347C52.0644 201.219 50.3044 202.979 50.3044 205.149C50.3044 207.32 52.0639 209.08 54.2347 209.08H79.3856C81.5559 209.08 83.3158 207.32 83.3158 205.149C83.3158 202.979 81.5564 201.219 79.3856 201.219Z" fill="black"/>
<path d="M163.228 201.219H96.1556C93.9853 201.219 92.2253 202.979 92.2253 205.149C92.2253 207.32 93.9848 209.08 96.1556 209.08H163.228C165.399 209.08 167.159 207.32 167.159 205.149C167.159 202.979 165.399 201.219 163.228 201.219Z" fill="black"/>
</svg>
